ISO-10303-21;
HEADER;
/* Generated by software containing ST-Developer
 * from STEP Tools, Inc. (www.steptools.com) 
 */
/* OPTION: using custom schema-name function */

FILE_DESCRIPTION(
/* description */ (''),
/* implementation_level */ '2;1');

FILE_NAME(
/* name */ 'print robot arm',
/* time_stamp */ '2026-09-11T18:38:55-07:00',
/* author */ (''),
/* organization */ (''),
/* preprocessor_version */ 'ST-DEVELOPER v19.2',
/* originating_system */ 'Rhino 8.34',
/* authorisation */ '');

FILE_SCHEMA (('CONFIG_CONTROL_DESIGN'));
ENDSEC;

DATA;
#10=SHAPE_REPRESENTATION_RELATIONSHIP('','',#773,#13);
#11=SHAPE_REPRESENTATION_RELATIONSHIP('','',#773,#21);
#12=GEOMETRIC_CURVE_SET('curve_set_0',(#543,#544,#545,#546,#547,#548,#549,
#550,#551,#552,#553,#554,#555,#556));
#13=GEOMETRICALLY_BOUNDED_WIREFRAME_SHAPE_REPRESENTATION(
'wireframe_rep_0',(#12,#887),#772);
#14=MANIFOLD_SOLID_BREP('brep_1',#22);
#15=MANIFOLD_SOLID_BREP('brep_2',#23);
#16=MANIFOLD_SOLID_BREP('brep_3',#24);
#17=MANIFOLD_SOLID_BREP('brep_4',#25);
#18=MANIFOLD_SOLID_BREP('brep_5',#26);
#19=MANIFOLD_SOLID_BREP('brep_6',#27);
#20=MANIFOLD_SOLID_BREP('brep_7',#28);
#21=ADVANCED_BREP_SHAPE_REPRESENTATION('brep_rep_0',(#14,#15,#16,#17,#18,
#19,#20,#888),#772);
#22=CLOSED_SHELL('',(#43,#44,#45,#46,#47,#48));
#23=CLOSED_SHELL('',(#49,#50,#51,#52,#53,#54));
#24=CLOSED_SHELL('',(#55,#56,#57,#58,#59,#60));
#25=CLOSED_SHELL('',(#61,#62,#63,#64,#65,#66));
#26=CLOSED_SHELL('',(#67,#68,#69,#70,#71,#72));
#27=CLOSED_SHELL('',(#73,#74,#75,#76,#77,#78));
#28=CLOSED_SHELL('',(#79,#80,#81,#82,#83,#84));
#29=FACE_BOUND('',#130,.T.);
#30=FACE_BOUND('',#132,.T.);
#31=FACE_BOUND('',#138,.T.);
#32=FACE_BOUND('',#140,.T.);
#33=FACE_BOUND('',#146,.T.);
#34=FACE_BOUND('',#148,.T.);
#35=FACE_BOUND('',#154,.T.);
#36=FACE_BOUND('',#156,.T.);
#37=FACE_BOUND('',#162,.T.);
#38=FACE_BOUND('',#164,.T.);
#39=FACE_BOUND('',#170,.T.);
#40=FACE_BOUND('',#172,.T.);
#41=FACE_BOUND('',#178,.T.);
#42=FACE_BOUND('',#180,.T.);
#43=ADVANCED_FACE('',(#85),#659,.T.);
#44=ADVANCED_FACE('',(#86),#660,.F.);
#45=ADVANCED_FACE('',(#87,#29),#645,.T.);
#46=ADVANCED_FACE('',(#88,#30),#646,.T.);
#47=ADVANCED_FACE('',(#89),#661,.T.);
#48=ADVANCED_FACE('',(#90),#662,.F.);
#49=ADVANCED_FACE('',(#91),#663,.T.);
#50=ADVANCED_FACE('',(#92),#664,.F.);
#51=ADVANCED_FACE('',(#93,#31),#647,.T.);
#52=ADVANCED_FACE('',(#94,#32),#648,.T.);
#53=ADVANCED_FACE('',(#95),#665,.T.);
#54=ADVANCED_FACE('',(#96),#666,.F.);
#55=ADVANCED_FACE('',(#97),#667,.T.);
#56=ADVANCED_FACE('',(#98),#668,.F.);
#57=ADVANCED_FACE('',(#99,#33),#649,.T.);
#58=ADVANCED_FACE('',(#100,#34),#650,.T.);
#59=ADVANCED_FACE('',(#101),#669,.T.);
#60=ADVANCED_FACE('',(#102),#670,.F.);
#61=ADVANCED_FACE('',(#103),#671,.T.);
#62=ADVANCED_FACE('',(#104),#672,.F.);
#63=ADVANCED_FACE('',(#105,#35),#651,.T.);
#64=ADVANCED_FACE('',(#106,#36),#652,.T.);
#65=ADVANCED_FACE('',(#107),#673,.T.);
#66=ADVANCED_FACE('',(#108),#674,.F.);
#67=ADVANCED_FACE('',(#109),#675,.T.);
#68=ADVANCED_FACE('',(#110),#676,.F.);
#69=ADVANCED_FACE('',(#111,#37),#653,.T.);
#70=ADVANCED_FACE('',(#112,#38),#654,.T.);
#71=ADVANCED_FACE('',(#113),#677,.T.);
#72=ADVANCED_FACE('',(#114),#678,.F.);
#73=ADVANCED_FACE('',(#115),#679,.T.);
#74=ADVANCED_FACE('',(#116),#680,.F.);
#75=ADVANCED_FACE('',(#117,#39),#655,.T.);
#76=ADVANCED_FACE('',(#118,#40),#656,.T.);
#77=ADVANCED_FACE('',(#119),#681,.T.);
#78=ADVANCED_FACE('',(#120),#682,.F.);
#79=ADVANCED_FACE('',(#121),#683,.T.);
#80=ADVANCED_FACE('',(#122),#684,.F.);
#81=ADVANCED_FACE('',(#123,#41),#657,.T.);
#82=ADVANCED_FACE('',(#124,#42),#658,.T.);
#83=ADVANCED_FACE('',(#125),#685,.T.);
#84=ADVANCED_FACE('',(#126),#686,.F.);
#85=FACE_OUTER_BOUND('',#127,.T.);
#86=FACE_OUTER_BOUND('',#128,.T.);
#87=FACE_OUTER_BOUND('',#129,.T.);
#88=FACE_OUTER_BOUND('',#131,.T.);
#89=FACE_OUTER_BOUND('',#133,.T.);
#90=FACE_OUTER_BOUND('',#134,.T.);
#91=FACE_OUTER_BOUND('',#135,.T.);
#92=FACE_OUTER_BOUND('',#136,.T.);
#93=FACE_OUTER_BOUND('',#137,.T.);
#94=FACE_OUTER_BOUND('',#139,.T.);
#95=FACE_OUTER_BOUND('',#141,.T.);
#96=FACE_OUTER_BOUND('',#142,.T.);
#97=FACE_OUTER_BOUND('',#143,.T.);
#98=FACE_OUTER_BOUND('',#144,.T.);
#99=FACE_OUTER_BOUND('',#145,.T.);
#100=FACE_OUTER_BOUND('',#147,.T.);
#101=FACE_OUTER_BOUND('',#149,.T.);
#102=FACE_OUTER_BOUND('',#150,.T.);
#103=FACE_OUTER_BOUND('',#151,.T.);
#104=FACE_OUTER_BOUND('',#152,.T.);
#105=FACE_OUTER_BOUND('',#153,.T.);
#106=FACE_OUTER_BOUND('',#155,.T.);
#107=FACE_OUTER_BOUND('',#157,.T.);
#108=FACE_OUTER_BOUND('',#158,.T.);
#109=FACE_OUTER_BOUND('',#159,.T.);
#110=FACE_OUTER_BOUND('',#160,.T.);
#111=FACE_OUTER_BOUND('',#161,.T.);
#112=FACE_OUTER_BOUND('',#163,.T.);
#113=FACE_OUTER_BOUND('',#165,.T.);
#114=FACE_OUTER_BOUND('',#166,.T.);
#115=FACE_OUTER_BOUND('',#167,.T.);
#116=FACE_OUTER_BOUND('',#168,.T.);
#117=FACE_OUTER_BOUND('',#169,.T.);
#118=FACE_OUTER_BOUND('',#171,.T.);
#119=FACE_OUTER_BOUND('',#173,.T.);
#120=FACE_OUTER_BOUND('',#174,.T.);
#121=FACE_OUTER_BOUND('',#175,.T.);
#122=FACE_OUTER_BOUND('',#176,.T.);
#123=FACE_OUTER_BOUND('',#177,.T.);
#124=FACE_OUTER_BOUND('',#179,.T.);
#125=FACE_OUTER_BOUND('',#181,.T.);
#126=FACE_OUTER_BOUND('',#182,.T.);
#127=EDGE_LOOP('',(#183,#184,#185,#186));
#128=EDGE_LOOP('',(#187,#188,#189,#190));
#129=EDGE_LOOP('',(#191,#192));
#130=EDGE_LOOP('',(#193,#194));
#131=EDGE_LOOP('',(#195,#196));
#132=EDGE_LOOP('',(#197,#198));
#133=EDGE_LOOP('',(#199,#200,#201,#202));
#134=EDGE_LOOP('',(#203,#204,#205,#206));
#135=EDGE_LOOP('',(#207,#208,#209,#210));
#136=EDGE_LOOP('',(#211,#212,#213,#214));
#137=EDGE_LOOP('',(#215,#216));
#138=EDGE_LOOP('',(#217,#218));
#139=EDGE_LOOP('',(#219,#220));
#140=EDGE_LOOP('',(#221,#222));
#141=EDGE_LOOP('',(#223,#224,#225,#226));
#142=EDGE_LOOP('',(#227,#228,#229,#230));
#143=EDGE_LOOP('',(#231,#232,#233,#234));
#144=EDGE_LOOP('',(#235,#236,#237,#238));
#145=EDGE_LOOP('',(#239,#240));
#146=EDGE_LOOP('',(#241,#242));
#147=EDGE_LOOP('',(#243,#244));
#148=EDGE_LOOP('',(#245,#246));
#149=EDGE_LOOP('',(#247,#248,#249,#250));
#150=EDGE_LOOP('',(#251,#252,#253,#254));
#151=EDGE_LOOP('',(#255,#256,#257,#258));
#152=EDGE_LOOP('',(#259,#260,#261,#262));
#153=EDGE_LOOP('',(#263,#264));
#154=EDGE_LOOP('',(#265,#266));
#155=EDGE_LOOP('',(#267,#268));
#156=EDGE_LOOP('',(#269,#270));
#157=EDGE_LOOP('',(#271,#272,#273,#274));
#158=EDGE_LOOP('',(#275,#276,#277,#278));
#159=EDGE_LOOP('',(#279,#280,#281,#282));
#160=EDGE_LOOP('',(#283,#284,#285,#286));
#161=EDGE_LOOP('',(#287,#288));
#162=EDGE_LOOP('',(#289,#290));
#163=EDGE_LOOP('',(#291,#292));
#164=EDGE_LOOP('',(#293,#294));
#165=EDGE_LOOP('',(#295,#296,#297,#298));
#166=EDGE_LOOP('',(#299,#300,#301,#302));
#167=EDGE_LOOP('',(#303,#304,#305,#306));
#168=EDGE_LOOP('',(#307,#308,#309,#310));
#169=EDGE_LOOP('',(#311,#312));
#170=EDGE_LOOP('',(#313,#314));
#171=EDGE_LOOP('',(#315,#316));
#172=EDGE_LOOP('',(#317,#318));
#173=EDGE_LOOP('',(#319,#320,#321,#322));
#174=EDGE_LOOP('',(#323,#324,#325,#326));
#175=EDGE_LOOP('',(#327,#328,#329,#330));
#176=EDGE_LOOP('',(#331,#332,#333,#334));
#177=EDGE_LOOP('',(#335,#336));
#178=EDGE_LOOP('',(#337,#338));
#179=EDGE_LOOP('',(#339,#340));
#180=EDGE_LOOP('',(#341,#342));
#181=EDGE_LOOP('',(#343,#344,#345,#346));
#182=EDGE_LOOP('',(#347,#348,#349,#350));
#183=ORIENTED_EDGE('',*,*,#357,.T.);
#184=ORIENTED_EDGE('',*,*,#353,.F.);
#185=ORIENTED_EDGE('',*,*,#352,.F.);
#186=ORIENTED_EDGE('',*,*,#351,.T.);
#187=ORIENTED_EDGE('',*,*,#360,.T.);
#188=ORIENTED_EDGE('',*,*,#356,.F.);
#189=ORIENTED_EDGE('',*,*,#355,.F.);
#190=ORIENTED_EDGE('',*,*,#354,.T.);
#191=ORIENTED_EDGE('',*,*,#358,.F.);
#192=ORIENTED_EDGE('',*,*,#351,.F.);
#193=ORIENTED_EDGE('',*,*,#361,.F.);
#194=ORIENTED_EDGE('',*,*,#354,.F.);
#195=ORIENTED_EDGE('',*,*,#353,.T.);
#196=ORIENTED_EDGE('',*,*,#359,.T.);
#197=ORIENTED_EDGE('',*,*,#356,.T.);
#198=ORIENTED_EDGE('',*,*,#362,.T.);
#199=ORIENTED_EDGE('',*,*,#358,.T.);
#200=ORIENTED_EDGE('',*,*,#352,.T.);
#201=ORIENTED_EDGE('',*,*,#359,.F.);
#202=ORIENTED_EDGE('',*,*,#357,.F.);
#203=ORIENTED_EDGE('',*,*,#361,.T.);
#204=ORIENTED_EDGE('',*,*,#355,.T.);
#205=ORIENTED_EDGE('',*,*,#362,.F.);
#206=ORIENTED_EDGE('',*,*,#360,.F.);
#207=ORIENTED_EDGE('',*,*,#369,.T.);
#208=ORIENTED_EDGE('',*,*,#365,.F.);
#209=ORIENTED_EDGE('',*,*,#364,.F.);
#210=ORIENTED_EDGE('',*,*,#363,.T.);
#211=ORIENTED_EDGE('',*,*,#372,.T.);
#212=ORIENTED_EDGE('',*,*,#368,.F.);
#213=ORIENTED_EDGE('',*,*,#367,.F.);
#214=ORIENTED_EDGE('',*,*,#366,.T.);
#215=ORIENTED_EDGE('',*,*,#370,.F.);
#216=ORIENTED_EDGE('',*,*,#363,.F.);
#217=ORIENTED_EDGE('',*,*,#373,.F.);
#218=ORIENTED_EDGE('',*,*,#366,.F.);
#219=ORIENTED_EDGE('',*,*,#365,.T.);
#220=ORIENTED_EDGE('',*,*,#371,.T.);
#221=ORIENTED_EDGE('',*,*,#368,.T.);
#222=ORIENTED_EDGE('',*,*,#374,.T.);
#223=ORIENTED_EDGE('',*,*,#370,.T.);
#224=ORIENTED_EDGE('',*,*,#364,.T.);
#225=ORIENTED_EDGE('',*,*,#371,.F.);
#226=ORIENTED_EDGE('',*,*,#369,.F.);
#227=ORIENTED_EDGE('',*,*,#373,.T.);
#228=ORIENTED_EDGE('',*,*,#367,.T.);
#229=ORIENTED_EDGE('',*,*,#374,.F.);
#230=ORIENTED_EDGE('',*,*,#372,.F.);
#231=ORIENTED_EDGE('',*,*,#381,.T.);
#232=ORIENTED_EDGE('',*,*,#377,.F.);
#233=ORIENTED_EDGE('',*,*,#376,.F.);
#234=ORIENTED_EDGE('',*,*,#375,.T.);
#235=ORIENTED_EDGE('',*,*,#384,.T.);
#236=ORIENTED_EDGE('',*,*,#380,.F.);
#237=ORIENTED_EDGE('',*,*,#379,.F.);
#238=ORIENTED_EDGE('',*,*,#378,.T.);
#239=ORIENTED_EDGE('',*,*,#382,.F.);
#240=ORIENTED_EDGE('',*,*,#375,.F.);
#241=ORIENTED_EDGE('',*,*,#385,.F.);
#242=ORIENTED_EDGE('',*,*,#378,.F.);
#243=ORIENTED_EDGE('',*,*,#377,.T.);
#244=ORIENTED_EDGE('',*,*,#383,.T.);
#245=ORIENTED_EDGE('',*,*,#380,.T.);
#246=ORIENTED_EDGE('',*,*,#386,.T.);
#247=ORIENTED_EDGE('',*,*,#382,.T.);
#248=ORIENTED_EDGE('',*,*,#376,.T.);
#249=ORIENTED_EDGE('',*,*,#383,.F.);
#250=ORIENTED_EDGE('',*,*,#381,.F.);
#251=ORIENTED_EDGE('',*,*,#385,.T.);
#252=ORIENTED_EDGE('',*,*,#379,.T.);
#253=ORIENTED_EDGE('',*,*,#386,.F.);
#254=ORIENTED_EDGE('',*,*,#384,.F.);
#255=ORIENTED_EDGE('',*,*,#393,.T.);
#256=ORIENTED_EDGE('',*,*,#389,.F.);
#257=ORIENTED_EDGE('',*,*,#388,.F.);
#258=ORIENTED_EDGE('',*,*,#387,.T.);
#259=ORIENTED_EDGE('',*,*,#396,.T.);
#260=ORIENTED_EDGE('',*,*,#392,.F.);
#261=ORIENTED_EDGE('',*,*,#391,.F.);
#262=ORIENTED_EDGE('',*,*,#390,.T.);
#263=ORIENTED_EDGE('',*,*,#394,.F.);
#264=ORIENTED_EDGE('',*,*,#387,.F.);
#265=ORIENTED_EDGE('',*,*,#397,.F.);
#266=ORIENTED_EDGE('',*,*,#390,.F.);
#267=ORIENTED_EDGE('',*,*,#389,.T.);
#268=ORIENTED_EDGE('',*,*,#395,.T.);
#269=ORIENTED_EDGE('',*,*,#392,.T.);
#270=ORIENTED_EDGE('',*,*,#398,.T.);
#271=ORIENTED_EDGE('',*,*,#394,.T.);
#272=ORIENTED_EDGE('',*,*,#388,.T.);
#273=ORIENTED_EDGE('',*,*,#395,.F.);
#274=ORIENTED_EDGE('',*,*,#393,.F.);
#275=ORIENTED_EDGE('',*,*,#397,.T.);
#276=ORIENTED_EDGE('',*,*,#391,.T.);
#277=ORIENTED_EDGE('',*,*,#398,.F.);
#278=ORIENTED_EDGE('',*,*,#396,.F.);
#279=ORIENTED_EDGE('',*,*,#405,.T.);
#280=ORIENTED_EDGE('',*,*,#401,.F.);
#281=ORIENTED_EDGE('',*,*,#400,.F.);
#282=ORIENTED_EDGE('',*,*,#399,.T.);
#283=ORIENTED_EDGE('',*,*,#408,.T.);
#284=ORIENTED_EDGE('',*,*,#404,.F.);
#285=ORIENTED_EDGE('',*,*,#403,.F.);
#286=ORIENTED_EDGE('',*,*,#402,.T.);
#287=ORIENTED_EDGE('',*,*,#406,.F.);
#288=ORIENTED_EDGE('',*,*,#399,.F.);
#289=ORIENTED_EDGE('',*,*,#409,.F.);
#290=ORIENTED_EDGE('',*,*,#402,.F.);
#291=ORIENTED_EDGE('',*,*,#401,.T.);
#292=ORIENTED_EDGE('',*,*,#407,.T.);
#293=ORIENTED_EDGE('',*,*,#404,.T.);
#294=ORIENTED_EDGE('',*,*,#410,.T.);
#295=ORIENTED_EDGE('',*,*,#406,.T.);
#296=ORIENTED_EDGE('',*,*,#400,.T.);
#297=ORIENTED_EDGE('',*,*,#407,.F.);
#298=ORIENTED_EDGE('',*,*,#405,.F.);
#299=ORIENTED_EDGE('',*,*,#409,.T.);
#300=ORIENTED_EDGE('',*,*,#403,.T.);
#301=ORIENTED_EDGE('',*,*,#410,.F.);
#302=ORIENTED_EDGE('',*,*,#408,.F.);
#303=ORIENTED_EDGE('',*,*,#417,.T.);
#304=ORIENTED_EDGE('',*,*,#413,.F.);
#305=ORIENTED_EDGE('',*,*,#412,.F.);
#306=ORIENTED_EDGE('',*,*,#411,.T.);
#307=ORIENTED_EDGE('',*,*,#420,.T.);
#308=ORIENTED_EDGE('',*,*,#416,.F.);
#309=ORIENTED_EDGE('',*,*,#415,.F.);
#310=ORIENTED_EDGE('',*,*,#414,.T.);
#311=ORIENTED_EDGE('',*,*,#418,.F.);
#312=ORIENTED_EDGE('',*,*,#411,.F.);
#313=ORIENTED_EDGE('',*,*,#421,.F.);
#314=ORIENTED_EDGE('',*,*,#414,.F.);
#315=ORIENTED_EDGE('',*,*,#413,.T.);
#316=ORIENTED_EDGE('',*,*,#419,.T.);
#317=ORIENTED_EDGE('',*,*,#416,.T.);
#318=ORIENTED_EDGE('',*,*,#422,.T.);
#319=ORIENTED_EDGE('',*,*,#418,.T.);
#320=ORIENTED_EDGE('',*,*,#412,.T.);
#321=ORIENTED_EDGE('',*,*,#419,.F.);
#322=ORIENTED_EDGE('',*,*,#417,.F.);
#323=ORIENTED_EDGE('',*,*,#421,.T.);
#324=ORIENTED_EDGE('',*,*,#415,.T.);
#325=ORIENTED_EDGE('',*,*,#422,.F.);
#326=ORIENTED_EDGE('',*,*,#420,.F.);
#327=ORIENTED_EDGE('',*,*,#429,.T.);
#328=ORIENTED_EDGE('',*,*,#425,.F.);
#329=ORIENTED_EDGE('',*,*,#424,.F.);
#330=ORIENTED_EDGE('',*,*,#423,.T.);
#331=ORIENTED_EDGE('',*,*,#432,.T.);
#332=ORIENTED_EDGE('',*,*,#428,.F.);
#333=ORIENTED_EDGE('',*,*,#427,.F.);
#334=ORIENTED_EDGE('',*,*,#426,.T.);
#335=ORIENTED_EDGE('',*,*,#430,.F.);
#336=ORIENTED_EDGE('',*,*,#423,.F.);
#337=ORIENTED_EDGE('',*,*,#433,.F.);
#338=ORIENTED_EDGE('',*,*,#426,.F.);
#339=ORIENTED_EDGE('',*,*,#425,.T.);
#340=ORIENTED_EDGE('',*,*,#431,.T.);
#341=ORIENTED_EDGE('',*,*,#428,.T.);
#342=ORIENTED_EDGE('',*,*,#434,.T.);
#343=ORIENTED_EDGE('',*,*,#430,.T.);
#344=ORIENTED_EDGE('',*,*,#424,.T.);
#345=ORIENTED_EDGE('',*,*,#431,.F.);
#346=ORIENTED_EDGE('',*,*,#429,.F.);
#347=ORIENTED_EDGE('',*,*,#433,.T.);
#348=ORIENTED_EDGE('',*,*,#427,.T.);
#349=ORIENTED_EDGE('',*,*,#434,.F.);
#350=ORIENTED_EDGE('',*,*,#432,.F.);
#351=EDGE_CURVE('',#589,#593,#463,.T.);
#352=EDGE_CURVE('',#589,#590,#435,.T.);
#353=EDGE_CURVE('',#590,#594,#464,.T.);
#354=EDGE_CURVE('',#591,#595,#465,.T.);
#355=EDGE_CURVE('',#591,#592,#436,.T.);
#356=EDGE_CURVE('',#592,#596,#466,.T.);
#357=EDGE_CURVE('',#593,#594,#437,.T.);
#358=EDGE_CURVE('',#593,#589,#467,.T.);
#359=EDGE_CURVE('',#594,#590,#468,.T.);
#360=EDGE_CURVE('',#595,#596,#438,.T.);
#361=EDGE_CURVE('',#595,#591,#469,.T.);
#362=EDGE_CURVE('',#596,#592,#470,.T.);
#363=EDGE_CURVE('',#597,#601,#471,.T.);
#364=EDGE_CURVE('',#597,#598,#439,.T.);
#365=EDGE_CURVE('',#598,#602,#472,.T.);
#366=EDGE_CURVE('',#599,#603,#473,.T.);
#367=EDGE_CURVE('',#599,#600,#440,.T.);
#368=EDGE_CURVE('',#600,#604,#474,.T.);
#369=EDGE_CURVE('',#601,#602,#441,.T.);
#370=EDGE_CURVE('',#601,#597,#475,.T.);
#371=EDGE_CURVE('',#602,#598,#476,.T.);
#372=EDGE_CURVE('',#603,#604,#442,.T.);
#373=EDGE_CURVE('',#603,#599,#477,.T.);
#374=EDGE_CURVE('',#604,#600,#478,.T.);
#375=EDGE_CURVE('',#605,#609,#479,.T.);
#376=EDGE_CURVE('',#605,#606,#443,.T.);
#377=EDGE_CURVE('',#606,#610,#480,.T.);
#378=EDGE_CURVE('',#607,#611,#481,.T.);
#379=EDGE_CURVE('',#607,#608,#444,.T.);
#380=EDGE_CURVE('',#608,#612,#482,.T.);
#381=EDGE_CURVE('',#609,#610,#445,.T.);
#382=EDGE_CURVE('',#609,#605,#483,.T.);
#383=EDGE_CURVE('',#610,#606,#484,.T.);
#384=EDGE_CURVE('',#611,#612,#446,.T.);
#385=EDGE_CURVE('',#611,#607,#485,.T.);
#386=EDGE_CURVE('',#612,#608,#486,.T.);
#387=EDGE_CURVE('',#613,#617,#487,.T.);
#388=EDGE_CURVE('',#613,#614,#447,.T.);
#389=EDGE_CURVE('',#614,#618,#488,.T.);
#390=EDGE_CURVE('',#615,#619,#489,.T.);
#391=EDGE_CURVE('',#615,#616,#448,.T.);
#392=EDGE_CURVE('',#616,#620,#490,.T.);
#393=EDGE_CURVE('',#617,#618,#449,.T.);
#394=EDGE_CURVE('',#617,#613,#491,.T.);
#395=EDGE_CURVE('',#618,#614,#492,.T.);
#396=EDGE_CURVE('',#619,#620,#450,.T.);
#397=EDGE_CURVE('',#619,#615,#493,.T.);
#398=EDGE_CURVE('',#620,#616,#494,.T.);
#399=EDGE_CURVE('',#621,#625,#495,.T.);
#400=EDGE_CURVE('',#621,#622,#451,.T.);
#401=EDGE_CURVE('',#622,#626,#496,.T.);
#402=EDGE_CURVE('',#623,#627,#497,.T.);
#403=EDGE_CURVE('',#623,#624,#452,.T.);
#404=EDGE_CURVE('',#624,#628,#498,.T.);
#405=EDGE_CURVE('',#625,#626,#453,.T.);
#406=EDGE_CURVE('',#625,#621,#499,.T.);
#407=EDGE_CURVE('',#626,#622,#500,.T.);
#408=EDGE_CURVE('',#627,#628,#454,.T.);
#409=EDGE_CURVE('',#627,#623,#501,.T.);
#410=EDGE_CURVE('',#628,#624,#502,.T.);
#411=EDGE_CURVE('',#629,#633,#503,.T.);
#412=EDGE_CURVE('',#629,#630,#455,.T.);
#413=EDGE_CURVE('',#630,#634,#504,.T.);
#414=EDGE_CURVE('',#631,#635,#505,.T.);
#415=EDGE_CURVE('',#631,#632,#456,.T.);
#416=EDGE_CURVE('',#632,#636,#506,.T.);
#417=EDGE_CURVE('',#633,#634,#457,.T.);
#418=EDGE_CURVE('',#633,#629,#507,.T.);
#419=EDGE_CURVE('',#634,#630,#508,.T.);
#420=EDGE_CURVE('',#635,#636,#458,.T.);
#421=EDGE_CURVE('',#635,#631,#509,.T.);
#422=EDGE_CURVE('',#636,#632,#510,.T.);
#423=EDGE_CURVE('',#637,#641,#511,.T.);
#424=EDGE_CURVE('',#637,#638,#459,.T.);
#425=EDGE_CURVE('',#638,#642,#512,.T.);
#426=EDGE_CURVE('',#639,#643,#513,.T.);
#427=EDGE_CURVE('',#639,#640,#460,.T.);
#428=EDGE_CURVE('',#640,#644,#514,.T.);
#429=EDGE_CURVE('',#641,#642,#461,.T.);
#430=EDGE_CURVE('',#641,#637,#515,.T.);
#431=EDGE_CURVE('',#642,#638,#516,.T.);
#432=EDGE_CURVE('',#643,#644,#462,.T.);
#433=EDGE_CURVE('',#643,#639,#517,.T.);
#434=EDGE_CURVE('',#644,#640,#518,.T.);
#435=(
BOUNDED_CURVE()
B_SPLINE_CURVE(1,(#1095,#1096),.UNSPECIFIED.,.F.,.F.)
B_SPLINE_CURVE_WITH_KNOTS((2,2),(0.,170.),.UNSPECIFIED.)
CURVE()
GEOMETRIC_REPRESENTATION_ITEM()
RATIONAL_B_SPLINE_CURVE((1.,1.))
REPRESENTATION_ITEM('')
);
#436=(
BOUNDED_CURVE()
B_SPLINE_CURVE(1,(#1103,#1104),.UNSPECIFIED.,.F.,.F.)
B_SPLINE_CURVE_WITH_KNOTS((2,2),(0.,170.),.UNSPECIFIED.)
CURVE()
GEOMETRIC_REPRESENTATION_ITEM()
RATIONAL_B_SPLINE_CURVE((1.,1.))
REPRESENTATION_ITEM('')
);
#437=(
BOUNDED_CURVE()
B_SPLINE_CURVE(1,(#1108,#1109),.UNSPECIFIED.,.F.,.F.)
B_SPLINE_CURVE_WITH_KNOTS((2,2),(0.,170.),.UNSPECIFIED.)
CURVE()
GEOMETRIC_REPRESENTATION_ITEM()
RATIONAL_B_SPLINE_CURVE((1.,1.))
REPRESENTATION_ITEM('')
);
#438=(
BOUNDED_CURVE()
B_SPLINE_CURVE(1,(#1116,#1117),.UNSPECIFIED.,.F.,.F.)
B_SPLINE_CURVE_WITH_KNOTS((2,2),(0.,170.),.UNSPECIFIED.)
CURVE()
GEOMETRIC_REPRESENTATION_ITEM()
RATIONAL_B_SPLINE_CURVE((1.,1.))
REPRESENTATION_ITEM('')
);
#439=(
BOUNDED_CURVE()
B_SPLINE_CURVE(1,(#1141,#1142),.UNSPECIFIED.,.F.,.F.)
B_SPLINE_CURVE_WITH_KNOTS((2,2),(0.,170.),.UNSPECIFIED.)
CURVE()
GEOMETRIC_REPRESENTATION_ITEM()
RATIONAL_B_SPLINE_CURVE((1.,1.))
REPRESENTATION_ITEM('')
);
#440=(
BOUNDED_CURVE()
B_SPLINE_CURVE(1,(#1149,#1150),.UNSPECIFIED.,.F.,.F.)
B_SPLINE_CURVE_WITH_KNOTS((2,2),(0.,170.),.UNSPECIFIED.)
CURVE()
GEOMETRIC_REPRESENTATION_ITEM()
RATIONAL_B_SPLINE_CURVE((1.,1.))
REPRESENTATION_ITEM('')
);
#441=(
BOUNDED_CURVE()
B_SPLINE_CURVE(1,(#1154,#1155),.UNSPECIFIED.,.F.,.F.)
B_SPLINE_CURVE_WITH_KNOTS((2,2),(0.,170.),.UNSPECIFIED.)
CURVE()
GEOMETRIC_REPRESENTATION_ITEM()
RATIONAL_B_SPLINE_CURVE((1.,1.))
REPRESENTATION_ITEM('')
);
#442=(
BOUNDED_CURVE()
B_SPLINE_CURVE(1,(#1162,#1163),.UNSPECIFIED.,.F.,.F.)
B_SPLINE_CURVE_WITH_KNOTS((2,2),(0.,170.),.UNSPECIFIED.)
CURVE()
GEOMETRIC_REPRESENTATION_ITEM()
RATIONAL_B_SPLINE_CURVE((1.,1.))
REPRESENTATION_ITEM('')
);
#443=(
BOUNDED_CURVE()
B_SPLINE_CURVE(1,(#1187,#1188),.UNSPECIFIED.,.F.,.F.)
B_SPLINE_CURVE_WITH_KNOTS((2,2),(0.,170.),.UNSPECIFIED.)
CURVE()
GEOMETRIC_REPRESENTATION_ITEM()
RATIONAL_B_SPLINE_CURVE((1.,1.))
REPRESENTATION_ITEM('')
);
#444=(
BOUNDED_CURVE()
B_SPLINE_CURVE(1,(#1195,#1196),.UNSPECIFIED.,.F.,.F.)
B_SPLINE_CURVE_WITH_KNOTS((2,2),(0.,170.),.UNSPECIFIED.)
CURVE()
GEOMETRIC_REPRESENTATION_ITEM()
RATIONAL_B_SPLINE_CURVE((1.,1.))
REPRESENTATION_ITEM('')
);
#445=(
BOUNDED_CURVE()
B_SPLINE_CURVE(1,(#1200,#1201),.UNSPECIFIED.,.F.,.F.)
B_SPLINE_CURVE_WITH_KNOTS((2,2),(0.,170.),.UNSPECIFIED.)
CURVE()
GEOMETRIC_REPRESENTATION_ITEM()
RATIONAL_B_SPLINE_CURVE((1.,1.))
REPRESENTATION_ITEM('')
);
#446=(
BOUNDED_CURVE()
B_SPLINE_CURVE(1,(#1208,#1209),.UNSPECIFIED.,.F.,.F.)
B_SPLINE_CURVE_WITH_KNOTS((2,2),(0.,170.),.UNSPECIFIED.)
CURVE()
GEOMETRIC_REPRESENTATION_ITEM()
RATIONAL_B_SPLINE_CURVE((1.,1.))
REPRESENTATION_ITEM('')
);
#447=(
BOUNDED_CURVE()
B_SPLINE_CURVE(1,(#1247,#1248),.UNSPECIFIED.,.F.,.F.)
B_SPLINE_CURVE_WITH_KNOTS((2,2),(0.,170.),.UNSPECIFIED.)
CURVE()
GEOMETRIC_REPRESENTATION_ITEM()
RATIONAL_B_SPLINE_CURVE((1.,1.))
REPRESENTATION_ITEM('')
);
#448=(
BOUNDED_CURVE()
B_SPLINE_CURVE(1,(#1255,#1256),.UNSPECIFIED.,.F.,.F.)
B_SPLINE_CURVE_WITH_KNOTS((2,2),(0.,170.),.UNSPECIFIED.)
CURVE()
GEOMETRIC_REPRESENTATION_ITEM()
RATIONAL_B_SPLINE_CURVE((1.,1.))
REPRESENTATION_ITEM('')
);
#449=(
BOUNDED_CURVE()
B_SPLINE_CURVE(1,(#1260,#1261),.UNSPECIFIED.,.F.,.F.)
B_SPLINE_CURVE_WITH_KNOTS((2,2),(0.,170.),.UNSPECIFIED.)
CURVE()
GEOMETRIC_REPRESENTATION_ITEM()
RATIONAL_B_SPLINE_CURVE((1.,1.))
REPRESENTATION_ITEM('')
);
#450=(
BOUNDED_CURVE()
B_SPLINE_CURVE(1,(#1268,#1269),.UNSPECIFIED.,.F.,.F.)
B_SPLINE_CURVE_WITH_KNOTS((2,2),(0.,170.),.UNSPECIFIED.)
CURVE()
GEOMETRIC_REPRESENTATION_ITEM()
RATIONAL_B_SPLINE_CURVE((1.,1.))
REPRESENTATION_ITEM('')
);
#451=(
BOUNDED_CURVE()
B_SPLINE_CURVE(1,(#1293,#1294),.UNSPECIFIED.,.F.,.F.)
B_SPLINE_CURVE_WITH_KNOTS((2,2),(0.,170.),.UNSPECIFIED.)
CURVE()
GEOMETRIC_REPRESENTATION_ITEM()
RATIONAL_B_SPLINE_CURVE((1.,1.))
REPRESENTATION_ITEM('')
);
#452=(
BOUNDED_CURVE()
B_SPLINE_CURVE(1,(#1301,#1302),.UNSPECIFIED.,.F.,.F.)
B_SPLINE_CURVE_WITH_KNOTS((2,2),(0.,170.),.UNSPECIFIED.)
CURVE()
GEOMETRIC_REPRESENTATION_ITEM()
RATIONAL_B_SPLINE_CURVE((1.,1.))
REPRESENTATION_ITEM('')
);
#453=(
BOUNDED_CURVE()
B_SPLINE_CURVE(1,(#1306,#1307),.UNSPECIFIED.,.F.,.F.)
B_SPLINE_CURVE_WITH_KNOTS((2,2),(0.,170.),.UNSPECIFIED.)
CURVE()
GEOMETRIC_REPRESENTATION_ITEM()
RATIONAL_B_SPLINE_CURVE((1.,1.))
REPRESENTATION_ITEM('')
);
#454=(
BOUNDED_CURVE()
B_SPLINE_CURVE(1,(#1314,#1315),.UNSPECIFIED.,.F.,.F.)
B_SPLINE_CURVE_WITH_KNOTS((2,2),(0.,170.),.UNSPECIFIED.)
CURVE()
GEOMETRIC_REPRESENTATION_ITEM()
RATIONAL_B_SPLINE_CURVE((1.,1.))
REPRESENTATION_ITEM('')
);
#455=(
BOUNDED_CURVE()
B_SPLINE_CURVE(1,(#1339,#1340),.UNSPECIFIED.,.F.,.F.)
B_SPLINE_CURVE_WITH_KNOTS((2,2),(0.,170.),.UNSPECIFIED.)
CURVE()
GEOMETRIC_REPRESENTATION_ITEM()
RATIONAL_B_SPLINE_CURVE((1.,1.))
REPRESENTATION_ITEM('')
);
#456=(
BOUNDED_CURVE()
B_SPLINE_CURVE(1,(#1347,#1348),.UNSPECIFIED.,.F.,.F.)
B_SPLINE_CURVE_WITH_KNOTS((2,2),(0.,170.),.UNSPECIFIED.)
CURVE()
GEOMETRIC_REPRESENTATION_ITEM()
RATIONAL_B_SPLINE_CURVE((1.,1.))
REPRESENTATION_ITEM('')
);
#457=(
BOUNDED_CURVE()
B_SPLINE_CURVE(1,(#1352,#1353),.UNSPECIFIED.,.F.,.F.)
B_SPLINE_CURVE_WITH_KNOTS((2,2),(0.,170.),.UNSPECIFIED.)
CURVE()
GEOMETRIC_REPRESENTATION_ITEM()
RATIONAL_B_SPLINE_CURVE((1.,1.))
REPRESENTATION_ITEM('')
);
#458=(
BOUNDED_CURVE()
B_SPLINE_CURVE(1,(#1360,#1361),.UNSPECIFIED.,.F.,.F.)
B_SPLINE_CURVE_WITH_KNOTS((2,2),(0.,170.),.UNSPECIFIED.)
CURVE()
GEOMETRIC_REPRESENTATION_ITEM()
RATIONAL_B_SPLINE_CURVE((1.,1.))
REPRESENTATION_ITEM('')
);
#459=(
BOUNDED_CURVE()
B_SPLINE_CURVE(1,(#1385,#1386),.UNSPECIFIED.,.F.,.F.)
B_SPLINE_CURVE_WITH_KNOTS((2,2),(0.,170.),.UNSPECIFIED.)
CURVE()
GEOMETRIC_REPRESENTATION_ITEM()
RATIONAL_B_SPLINE_CURVE((1.,1.))
REPRESENTATION_ITEM('')
);
#460=(
BOUNDED_CURVE()
B_SPLINE_CURVE(1,(#1393,#1394),.UNSPECIFIED.,.F.,.F.)
B_SPLINE_CURVE_WITH_KNOTS((2,2),(0.,170.),.UNSPECIFIED.)
CURVE()
GEOMETRIC_REPRESENTATION_ITEM()
RATIONAL_B_SPLINE_CURVE((1.,1.))
REPRESENTATION_ITEM('')
);
#461=(
BOUNDED_CURVE()
B_SPLINE_CURVE(1,(#1398,#1399),.UNSPECIFIED.,.F.,.F.)
B_SPLINE_CURVE_WITH_KNOTS((2,2),(0.,170.),.UNSPECIFIED.)
CURVE()
GEOMETRIC_REPRESENTATION_ITEM()
RATIONAL_B_SPLINE_CURVE((1.,1.))
REPRESENTATION_ITEM('')
);
#462=(
BOUNDED_CURVE()
B_SPLINE_CURVE(1,(#1406,#1407),.UNSPECIFIED.,.F.,.F.)
B_SPLINE_CURVE_WITH_KNOTS((2,2),(0.,170.),.UNSPECIFIED.)
CURVE()
GEOMETRIC_REPRESENTATION_ITEM()
RATIONAL_B_SPLINE_CURVE((1.,1.))
REPRESENTATION_ITEM('')
);
#463=TRIMMED_CURVE($,#519,(#1093),(#1094),.T.,.CARTESIAN.);
#464=TRIMMED_CURVE($,#520,(#1098),(#1099),.T.,.CARTESIAN.);
#465=TRIMMED_CURVE($,#521,(#1101),(#1102),.T.,.CARTESIAN.);
#466=TRIMMED_CURVE($,#522,(#1106),(#1107),.T.,.CARTESIAN.);
#467=TRIMMED_CURVE($,#523,(#1111),(#1112),.T.,.CARTESIAN.);
#468=TRIMMED_CURVE($,#524,(#1114),(#1115),.T.,.CARTESIAN.);
#469=TRIMMED_CURVE($,#525,(#1119),(#1120),.T.,.CARTESIAN.);
#470=TRIMMED_CURVE($,#526,(#1122),(#1123),.T.,.CARTESIAN.);
#471=TRIMMED_CURVE($,#527,(#1139),(#1140),.T.,.CARTESIAN.);
#472=TRIMMED_CURVE($,#528,(#1144),(#1145),.T.,.CARTESIAN.);
#473=TRIMMED_CURVE($,#529,(#1147),(#1148),.T.,.CARTESIAN.);
#474=TRIMMED_CURVE($,#530,(#1152),(#1153),.T.,.CARTESIAN.);
#475=TRIMMED_CURVE($,#531,(#1157),(#1158),.T.,.CARTESIAN.);
#476=TRIMMED_CURVE($,#532,(#1160),(#1161),.T.,.CARTESIAN.);
#477=TRIMMED_CURVE($,#533,(#1165),(#1166),.T.,.CARTESIAN.);
#478=TRIMMED_CURVE($,#534,(#1168),(#1169),.T.,.CARTESIAN.);
#479=TRIMMED_CURVE($,#535,(#1185),(#1186),.T.,.CARTESIAN.);
#480=TRIMMED_CURVE($,#536,(#1190),(#1191),.T.,.CARTESIAN.);
#481=TRIMMED_CURVE($,#537,(#1193),(#1194),.T.,.CARTESIAN.);
#482=TRIMMED_CURVE($,#538,(#1198),(#1199),.T.,.CARTESIAN.);
#483=TRIMMED_CURVE($,#539,(#1203),(#1204),.T.,.CARTESIAN.);
#484=TRIMMED_CURVE($,#540,(#1206),(#1207),.T.,.CARTESIAN.);
#485=TRIMMED_CURVE($,#541,(#1211),(#1212),.T.,.CARTESIAN.);
#486=TRIMMED_CURVE($,#542,(#1214),(#1215),.T.,.CARTESIAN.);
#487=TRIMMED_CURVE($,#557,(#1245),(#1246),.T.,.CARTESIAN.);
#488=TRIMMED_CURVE($,#558,(#1250),(#1251),.T.,.CARTESIAN.);
#489=TRIMMED_CURVE($,#559,(#1253),(#1254),.T.,.CARTESIAN.);
#490=TRIMMED_CURVE($,#560,(#1258),(#1259),.T.,.CARTESIAN.);
#491=TRIMMED_CURVE($,#561,(#1263),(#1264),.T.,.CARTESIAN.);
#492=TRIMMED_CURVE($,#562,(#1266),(#1267),.T.,.CARTESIAN.);
#493=TRIMMED_CURVE($,#563,(#1271),(#1272),.T.,.CARTESIAN.);
#494=TRIMMED_CURVE($,#564,(#1274),(#1275),.T.,.CARTESIAN.);
#495=TRIMMED_CURVE($,#565,(#1291),(#1292),.T.,.CARTESIAN.);
#496=TRIMMED_CURVE($,#566,(#1296),(#1297),.T.,.CARTESIAN.);
#497=TRIMMED_CURVE($,#567,(#1299),(#1300),.T.,.CARTESIAN.);
#498=TRIMMED_CURVE($,#568,(#1304),(#1305),.T.,.CARTESIAN.);
#499=TRIMMED_CURVE($,#569,(#1309),(#1310),.T.,.CARTESIAN.);
#500=TRIMMED_CURVE($,#570,(#1312),(#1313),.T.,.CARTESIAN.);
#501=TRIMMED_CURVE($,#571,(#1317),(#1318),.T.,.CARTESIAN.);
#502=TRIMMED_CURVE($,#572,(#1320),(#1321),.T.,.CARTESIAN.);
#503=TRIMMED_CURVE($,#573,(#1337),(#1338),.T.,.CARTESIAN.);
#504=TRIMMED_CURVE($,#574,(#1342),(#1343),.T.,.CARTESIAN.);
#505=TRIMMED_CURVE($,#575,(#1345),(#1346),.T.,.CARTESIAN.);
#506=TRIMMED_CURVE($,#576,(#1350),(#1351),.T.,.CARTESIAN.);
#507=TRIMMED_CURVE($,#577,(#1355),(#1356),.T.,.CARTESIAN.);
#508=TRIMMED_CURVE($,#578,(#1358),(#1359),.T.,.CARTESIAN.);
#509=TRIMMED_CURVE($,#579,(#1363),(#1364),.T.,.CARTESIAN.);
#510=TRIMMED_CURVE($,#580,(#1366),(#1367),.T.,.CARTESIAN.);
#511=TRIMMED_CURVE($,#581,(#1383),(#1384),.T.,.CARTESIAN.);
#512=TRIMMED_CURVE($,#582,(#1388),(#1389),.T.,.CARTESIAN.);
#513=TRIMMED_CURVE($,#583,(#1391),(#1392),.T.,.CARTESIAN.);
#514=TRIMMED_CURVE($,#584,(#1396),(#1397),.T.,.CARTESIAN.);
#515=TRIMMED_CURVE($,#585,(#1401),(#1402),.T.,.CARTESIAN.);
#516=TRIMMED_CURVE($,#586,(#1404),(#1405),.T.,.CARTESIAN.);
#517=TRIMMED_CURVE($,#587,(#1409),(#1410),.T.,.CARTESIAN.);
#518=TRIMMED_CURVE($,#588,(#1412),(#1413),.T.,.CARTESIAN.);
#519=CIRCLE('',#781,25.);
#520=CIRCLE('',#782,25.);
#521=CIRCLE('',#783,16.5);
#522=CIRCLE('',#784,16.5);
#523=CIRCLE('',#785,25.);
#524=CIRCLE('',#786,25.);
#525=CIRCLE('',#787,16.5);
#526=CIRCLE('',#788,16.5);
#527=CIRCLE('',#795,22.5);
#528=CIRCLE('',#796,22.5);
#529=CIRCLE('',#797,16.5);
#530=CIRCLE('',#798,16.5);
#531=CIRCLE('',#799,22.5);
#532=CIRCLE('',#800,22.5);
#533=CIRCLE('',#801,16.5);
#534=CIRCLE('',#802,16.5);
#535=CIRCLE('',#809,20.);
#536=CIRCLE('',#810,20.);
#537=CIRCLE('',#811,16.5);
#538=CIRCLE('',#812,16.5);
#539=CIRCLE('',#813,20.);
#540=CIRCLE('',#814,20.);
#541=CIRCLE('',#815,16.5);
#542=CIRCLE('',#816,16.5);
#543=CIRCLE('',#817,16.5);
#544=CIRCLE('',#818,20.);
#545=CIRCLE('',#819,22.5);
#546=CIRCLE('',#820,16.5);
#547=CIRCLE('',#821,16.5);
#548=CIRCLE('',#822,25.);
#549=CIRCLE('',#823,16.5);
#550=CIRCLE('',#824,17.5);
#551=CIRCLE('',#825,17.);
#552=CIRCLE('',#826,16.5);
#553=CIRCLE('',#827,16.5);
#554=CIRCLE('',#828,18.);
#555=CIRCLE('',#829,18.5);
#556=CIRCLE('',#830,16.5);
#557=CIRCLE('',#837,17.);
#558=CIRCLE('',#838,17.);
#559=CIRCLE('',#839,16.5);
#560=CIRCLE('',#840,16.5);
#561=CIRCLE('',#841,17.);
#562=CIRCLE('',#842,17.);
#563=CIRCLE('',#843,16.5);
#564=CIRCLE('',#844,16.5);
#565=CIRCLE('',#851,17.5);
#566=CIRCLE('',#852,17.5);
#567=CIRCLE('',#853,16.5);
#568=CIRCLE('',#854,16.5);
#569=CIRCLE('',#855,17.5);
#570=CIRCLE('',#856,17.5);
#571=CIRCLE('',#857,16.5);
#572=CIRCLE('',#858,16.5);
#573=CIRCLE('',#865,18.5);
#574=CIRCLE('',#866,18.5);
#575=CIRCLE('',#867,16.5);
#576=CIRCLE('',#868,16.5);
#577=CIRCLE('',#869,18.5);
#578=CIRCLE('',#870,18.5);
#579=CIRCLE('',#871,16.5);
#580=CIRCLE('',#872,16.5);
#581=CIRCLE('',#879,18.);
#582=CIRCLE('',#880,18.);
#583=CIRCLE('',#881,16.5);
#584=CIRCLE('',#882,16.5);
#585=CIRCLE('',#883,18.);
#586=CIRCLE('',#884,18.);
#587=CIRCLE('',#885,16.5);
#588=CIRCLE('',#886,16.5);
#589=VERTEX_POINT('',#1084);
#590=VERTEX_POINT('',#1085);
#591=VERTEX_POINT('',#1086);
#592=VERTEX_POINT('',#1087);
#593=VERTEX_POINT('',#1088);
#594=VERTEX_POINT('',#1089);
#595=VERTEX_POINT('',#1090);
#596=VERTEX_POINT('',#1091);
#597=VERTEX_POINT('',#1130);
#598=VERTEX_POINT('',#1131);
#599=VERTEX_POINT('',#1132);
#600=VERTEX_POINT('',#1133);
#601=VERTEX_POINT('',#1134);
#602=VERTEX_POINT('',#1135);
#603=VERTEX_POINT('',#1136);
#604=VERTEX_POINT('',#1137);
#605=VERTEX_POINT('',#1176);
#606=VERTEX_POINT('',#1177);
#607=VERTEX_POINT('',#1178);
#608=VERTEX_POINT('',#1179);
#609=VERTEX_POINT('',#1180);
#610=VERTEX_POINT('',#1181);
#611=VERTEX_POINT('',#1182);
#612=VERTEX_POINT('',#1183);
#613=VERTEX_POINT('',#1236);
#614=VERTEX_POINT('',#1237);
#615=VERTEX_POINT('',#1238);
#616=VERTEX_POINT('',#1239);
#617=VERTEX_POINT('',#1240);
#618=VERTEX_POINT('',#1241);
#619=VERTEX_POINT('',#1242);
#620=VERTEX_POINT('',#1243);
#621=VERTEX_POINT('',#1282);
#622=VERTEX_POINT('',#1283);
#623=VERTEX_POINT('',#1284);
#624=VERTEX_POINT('',#1285);
#625=VERTEX_POINT('',#1286);
#626=VERTEX_POINT('',#1287);
#627=VERTEX_POINT('',#1288);
#628=VERTEX_POINT('',#1289);
#629=VERTEX_POINT('',#1328);
#630=VERTEX_POINT('',#1329);
#631=VERTEX_POINT('',#1330);
#632=VERTEX_POINT('',#1331);
#633=VERTEX_POINT('',#1332);
#634=VERTEX_POINT('',#1333);
#635=VERTEX_POINT('',#1334);
#636=VERTEX_POINT('',#1335);
#637=VERTEX_POINT('',#1374);
#638=VERTEX_POINT('',#1375);
#639=VERTEX_POINT('',#1376);
#640=VERTEX_POINT('',#1377);
#641=VERTEX_POINT('',#1378);
#642=VERTEX_POINT('',#1379);
#643=VERTEX_POINT('',#1380);
#644=VERTEX_POINT('',#1381);
#645=PLANE('',#777);
#646=PLANE('',#778);
#647=PLANE('',#791);
#648=PLANE('',#792);
#649=PLANE('',#805);
#650=PLANE('',#806);
#651=PLANE('',#833);
#652=PLANE('',#834);
#653=PLANE('',#847);
#654=PLANE('',#848);
#655=PLANE('',#861);
#656=PLANE('',#862);
#657=PLANE('',#875);
#658=PLANE('',#876);
#659=CYLINDRICAL_SURFACE('',#775,25.);
#660=CYLINDRICAL_SURFACE('',#776,16.5);
#661=CYLINDRICAL_SURFACE('',#779,25.);
#662=CYLINDRICAL_SURFACE('',#780,16.5);
#663=CYLINDRICAL_SURFACE('',#789,22.5);
#664=CYLINDRICAL_SURFACE('',#790,16.5);
#665=CYLINDRICAL_SURFACE('',#793,22.5);
#666=CYLINDRICAL_SURFACE('',#794,16.5);
#667=CYLINDRICAL_SURFACE('',#803,20.);
#668=CYLINDRICAL_SURFACE('',#804,16.5);
#669=CYLINDRICAL_SURFACE('',#807,20.);
#670=CYLINDRICAL_SURFACE('',#808,16.5);
#671=CYLINDRICAL_SURFACE('',#831,17.);
#672=CYLINDRICAL_SURFACE('',#832,16.5);
#673=CYLINDRICAL_SURFACE('',#835,17.);
#674=CYLINDRICAL_SURFACE('',#836,16.5);
#675=CYLINDRICAL_SURFACE('',#845,17.5);
#676=CYLINDRICAL_SURFACE('',#846,16.5);
#677=CYLINDRICAL_SURFACE('',#849,17.5);
#678=CYLINDRICAL_SURFACE('',#850,16.5);
#679=CYLINDRICAL_SURFACE('',#859,18.5);
#680=CYLINDRICAL_SURFACE('',#860,16.5);
#681=CYLINDRICAL_SURFACE('',#863,18.5);
#682=CYLINDRICAL_SURFACE('',#864,16.5);
#683=CYLINDRICAL_SURFACE('',#873,18.);
#684=CYLINDRICAL_SURFACE('',#874,16.5);
#685=CYLINDRICAL_SURFACE('',#877,18.);
#686=CYLINDRICAL_SURFACE('',#878,16.5);
#687=SHAPE_DEFINITION_REPRESENTATION(#688,#773);
#688=PRODUCT_DEFINITION_SHAPE($,$,#690);
#689=PRODUCT_DEFINITION_CONTEXT('3D Mechanical Parts',#762,'design');
#690=PRODUCT_DEFINITION('A','First version',#732,#689);
#691=DATE_TIME_ROLE('classification_date');
#692=DATE_TIME_ROLE('creation_date');
#693=APPLIED_DATE_AND_TIME_ASSIGNMENT(#717,#691,(#696));
#694=APPLIED_DATE_AND_TIME_ASSIGNMENT(#719,#692,(#690));
#695=SECURITY_CLASSIFICATION_LEVEL('unclassified');
#696=SECURITY_CLASSIFICATION('A','Security for version',#695);
#697=APPLIED_SECURITY_CLASSIFICATION_ASSIGNMENT(#696,(#732));
#698=APPROVAL_ROLE('Version approval');
#699=APPROVAL_ROLE('Version Security approval');
#700=APPROVAL_ROLE('Definition approval');
#701=APPROVAL_PERSON_ORGANIZATION(#750,#726,#698);
#702=APPROVAL_PERSON_ORGANIZATION(#751,#727,#699);
#703=APPROVAL_PERSON_ORGANIZATION(#754,#728,#700);
#704=COORDINATED_UNIVERSAL_TIME_OFFSET(5,0,.BEHIND.);
#705=LOCAL_TIME(0,0,0.,#704);
#706=LOCAL_TIME(0,0,0.,#704);
#707=LOCAL_TIME(0,0,0.,#704);
#708=LOCAL_TIME(0,0,0.,#704);
#709=LOCAL_TIME(0,0,0.,#704);
#710=CALENDAR_DATE(1999,1,1);
#711=CALENDAR_DATE(1999,1,1);
#712=CALENDAR_DATE(1999,1,1);
#713=CALENDAR_DATE(1999,1,1);
#714=CALENDAR_DATE(1999,1,1);
#715=DATE_AND_TIME(#710,#705);
#716=DATE_AND_TIME(#711,#706);
#717=DATE_AND_TIME(#712,#707);
#718=DATE_AND_TIME(#713,#708);
#719=DATE_AND_TIME(#714,#709);
#720=APPROVAL_DATE_TIME(#715,#726);
#721=APPROVAL_DATE_TIME(#716,#727);
#722=APPROVAL_DATE_TIME(#718,#728);
#723=APPROVAL_STATUS('not_yet_approved');
#724=APPROVAL_STATUS('not_yet_approved');
#725=APPROVAL_STATUS('approved');
#726=APPROVAL(#723,'Version approval');
#727=APPROVAL(#724,'Version Security approval');
#728=APPROVAL(#725,'Definition approval');
#729=APPLIED_APPROVAL_ASSIGNMENT(#726,(#732));
#730=APPLIED_APPROVAL_ASSIGNMENT(#727,(#696));
#731=APPLIED_APPROVAL_ASSIGNMENT(#728,(#690));
#732=PRODUCT_DEFINITION_FORMATION_WITH_SPECIFIED_SOURCE('A',
'First version',#764,.MADE.);
#733=PERSON_AND_ORGANIZATION_ROLE('design_owner');
#734=PERSON_AND_ORGANIZATION_ROLE('creator');
#735=PERSON_AND_ORGANIZATION_ROLE('design_supplier');
#736=PERSON_AND_ORGANIZATION_ROLE('classification_officer');
#737=PERSON_AND_ORGANIZATION_ROLE('creator');
#738=ORGANIZATION('STI','lab','lab');
#739=ORGANIZATION('STI','unknown','unknown');
#740=ORGANIZATION('STI','unknown','unknown');
#741=ORGANIZATION('STI','unknown','unknown');
#742=ORGANIZATION('STI','unknown','unknown');
#743=ORGANIZATION('STI','unknown','unknown');
#744=ORGANIZATION('STI','unknown','unknown');
#745=PERSON('1','Box','vc60',$,$,$);
#746=PERSON('2','last','first',$,$,$);
#747=PERSON('3','President','Mr.',$,$,$);
#748=PERSON_AND_ORGANIZATION(#745,#738);
#749=PERSON_AND_ORGANIZATION(#746,#739);
#750=PERSON_AND_ORGANIZATION(#747,#740);
#751=PERSON_AND_ORGANIZATION(#747,#741);
#752=PERSON_AND_ORGANIZATION(#747,#742);
#753=PERSON_AND_ORGANIZATION(#746,#743);
#754=PERSON_AND_ORGANIZATION(#747,#744);
#755=APPLIED_PERSON_AND_ORGANIZATION_ASSIGNMENT(#748,#733,(#764));
#756=APPLIED_PERSON_AND_ORGANIZATION_ASSIGNMENT(#749,#734,(#732));
#757=APPLIED_PERSON_AND_ORGANIZATION_ASSIGNMENT(#749,#735,(#732));
#758=APPLIED_PERSON_AND_ORGANIZATION_ASSIGNMENT(#752,#736,(#696));
#759=APPLIED_PERSON_AND_ORGANIZATION_ASSIGNMENT(#753,#737,(#690));
#760=PRODUCT_RELATED_PRODUCT_CATEGORY('detail','detail',(#764));
#761=APPLICATION_PROTOCOL_DEFINITION('International Standard',
'config_control_design',1994,#762);
#762=APPLICATION_CONTEXT(
'configuration controlled 3d designs of mechanical parts and assemblie
s');
#763=PRODUCT_CONTEXT('3D Mechanical Parts',#762,'mechanical');
#764=PRODUCT('Document','Document','',(#763));
#765=(
LENGTH_UNIT()
NAMED_UNIT(*)
SI_UNIT(.MILLI.,.METRE.)
);
#766=(
NAMED_UNIT(*)
PLANE_ANGLE_UNIT()
SI_UNIT($,.RADIAN.)
);
#767=DIMENSIONAL_EXPONENTS(0.,0.,0.,0.,0.,0.,0.);
#768=PLANE_ANGLE_MEASURE_WITH_UNIT(PLANE_ANGLE_MEASURE(0.01745329252),#766);
#769=(
CONVERSION_BASED_UNIT('DEGREES',#768)
NAMED_UNIT(#767)
PLANE_ANGLE_UNIT()
);
#770=(
NAMED_UNIT(*)
SI_UNIT($,.STERADIAN.)
SOLID_ANGLE_UNIT()
);
#771=UNCERTAINTY_MEASURE_WITH_UNIT(LENGTH_MEASURE(0.001),#765,
'DISTANCE_ACCURACY_VALUE',
'Maximum model space distance between geometric entities at asserted c
onnectivities');
#772=(
GEOMETRIC_REPRESENTATION_CONTEXT(3)
GLOBAL_UNCERTAINTY_ASSIGNED_CONTEXT((#771))
GLOBAL_UNIT_ASSIGNED_CONTEXT((#770,#769,#765))
REPRESENTATION_CONTEXT('ID1','3D')
);
#773=SHAPE_REPRESENTATION('Document',(#774,#887,#888),#772);
#774=AXIS2_PLACEMENT_3D($,#1077,#889,#890);
#775=AXIS2_PLACEMENT_3D('',#1078,#891,$);
#776=AXIS2_PLACEMENT_3D('',#1079,#892,$);
#777=AXIS2_PLACEMENT_3D('',#1080,#893,$);
#778=AXIS2_PLACEMENT_3D('',#1081,#894,$);
#779=AXIS2_PLACEMENT_3D('',#1082,#895,$);
#780=AXIS2_PLACEMENT_3D('',#1083,#896,$);
#781=AXIS2_PLACEMENT_3D($,#1092,#897,#898);
#782=AXIS2_PLACEMENT_3D($,#1097,#899,#900);
#783=AXIS2_PLACEMENT_3D($,#1100,#901,#902);
#784=AXIS2_PLACEMENT_3D($,#1105,#903,#904);
#785=AXIS2_PLACEMENT_3D($,#1110,#905,#906);
#786=AXIS2_PLACEMENT_3D($,#1113,#907,#908);
#787=AXIS2_PLACEMENT_3D($,#1118,#909,#910);
#788=AXIS2_PLACEMENT_3D($,#1121,#911,#912);
#789=AXIS2_PLACEMENT_3D('',#1124,#913,$);
#790=AXIS2_PLACEMENT_3D('',#1125,#914,$);
#791=AXIS2_PLACEMENT_3D('',#1126,#915,$);
#792=AXIS2_PLACEMENT_3D('',#1127,#916,$);
#793=AXIS2_PLACEMENT_3D('',#1128,#917,$);
#794=AXIS2_PLACEMENT_3D('',#1129,#918,$);
#795=AXIS2_PLACEMENT_3D($,#1138,#919,#920);
#796=AXIS2_PLACEMENT_3D($,#1143,#921,#922);
#797=AXIS2_PLACEMENT_3D($,#1146,#923,#924);
#798=AXIS2_PLACEMENT_3D($,#1151,#925,#926);
#799=AXIS2_PLACEMENT_3D($,#1156,#927,#928);
#800=AXIS2_PLACEMENT_3D($,#1159,#929,#930);
#801=AXIS2_PLACEMENT_3D($,#1164,#931,#932);
#802=AXIS2_PLACEMENT_3D($,#1167,#933,#934);
#803=AXIS2_PLACEMENT_3D('',#1170,#935,$);
#804=AXIS2_PLACEMENT_3D('',#1171,#936,$);
#805=AXIS2_PLACEMENT_3D('',#1172,#937,$);
#806=AXIS2_PLACEMENT_3D('',#1173,#938,$);
#807=AXIS2_PLACEMENT_3D('',#1174,#939,$);
#808=AXIS2_PLACEMENT_3D('',#1175,#940,$);
#809=AXIS2_PLACEMENT_3D($,#1184,#941,#942);
#810=AXIS2_PLACEMENT_3D($,#1189,#943,#944);
#811=AXIS2_PLACEMENT_3D($,#1192,#945,#946);
#812=AXIS2_PLACEMENT_3D($,#1197,#947,#948);
#813=AXIS2_PLACEMENT_3D($,#1202,#949,#950);
#814=AXIS2_PLACEMENT_3D($,#1205,#951,#952);
#815=AXIS2_PLACEMENT_3D($,#1210,#953,#954);
#816=AXIS2_PLACEMENT_3D($,#1213,#955,#956);
#817=AXIS2_PLACEMENT_3D($,#1216,#957,#958);
#818=AXIS2_PLACEMENT_3D($,#1217,#959,#960);
#819=AXIS2_PLACEMENT_3D($,#1218,#961,#962);
#820=AXIS2_PLACEMENT_3D($,#1219,#963,#964);
#821=AXIS2_PLACEMENT_3D($,#1220,#965,#966);
#822=AXIS2_PLACEMENT_3D($,#1221,#967,#968);
#823=AXIS2_PLACEMENT_3D($,#1222,#969,#970);
#824=AXIS2_PLACEMENT_3D($,#1223,#971,#972);
#825=AXIS2_PLACEMENT_3D($,#1224,#973,#974);
#826=AXIS2_PLACEMENT_3D($,#1225,#975,#976);
#827=AXIS2_PLACEMENT_3D($,#1226,#977,#978);
#828=AXIS2_PLACEMENT_3D($,#1227,#979,#980);
#829=AXIS2_PLACEMENT_3D($,#1228,#981,#982);
#830=AXIS2_PLACEMENT_3D($,#1229,#983,#984);
#831=AXIS2_PLACEMENT_3D('',#1230,#985,$);
#832=AXIS2_PLACEMENT_3D('',#1231,#986,$);
#833=AXIS2_PLACEMENT_3D('',#1232,#987,$);
#834=AXIS2_PLACEMENT_3D('',#1233,#988,$);
#835=AXIS2_PLACEMENT_3D('',#1234,#989,$);
#836=AXIS2_PLACEMENT_3D('',#1235,#990,$);
#837=AXIS2_PLACEMENT_3D($,#1244,#991,#992);
#838=AXIS2_PLACEMENT_3D($,#1249,#993,#994);
#839=AXIS2_PLACEMENT_3D($,#1252,#995,#996);
#840=AXIS2_PLACEMENT_3D($,#1257,#997,#998);
#841=AXIS2_PLACEMENT_3D($,#1262,#999,#1000);
#842=AXIS2_PLACEMENT_3D($,#1265,#1001,#1002);
#843=AXIS2_PLACEMENT_3D($,#1270,#1003,#1004);
#844=AXIS2_PLACEMENT_3D($,#1273,#1005,#1006);
#845=AXIS2_PLACEMENT_3D('',#1276,#1007,$);
#846=AXIS2_PLACEMENT_3D('',#1277,#1008,$);
#847=AXIS2_PLACEMENT_3D('',#1278,#1009,$);
#848=AXIS2_PLACEMENT_3D('',#1279,#1010,$);
#849=AXIS2_PLACEMENT_3D('',#1280,#1011,$);
#850=AXIS2_PLACEMENT_3D('',#1281,#1012,$);
#851=AXIS2_PLACEMENT_3D($,#1290,#1013,#1014);
#852=AXIS2_PLACEMENT_3D($,#1295,#1015,#1016);
#853=AXIS2_PLACEMENT_3D($,#1298,#1017,#1018);
#854=AXIS2_PLACEMENT_3D($,#1303,#1019,#1020);
#855=AXIS2_PLACEMENT_3D($,#1308,#1021,#1022);
#856=AXIS2_PLACEMENT_3D($,#1311,#1023,#1024);
#857=AXIS2_PLACEMENT_3D($,#1316,#1025,#1026);
#858=AXIS2_PLACEMENT_3D($,#1319,#1027,#1028);
#859=AXIS2_PLACEMENT_3D('',#1322,#1029,$);
#860=AXIS2_PLACEMENT_3D('',#1323,#1030,$);
#861=AXIS2_PLACEMENT_3D('',#1324,#1031,$);
#862=AXIS2_PLACEMENT_3D('',#1325,#1032,$);
#863=AXIS2_PLACEMENT_3D('',#1326,#1033,$);
#864=AXIS2_PLACEMENT_3D('',#1327,#1034,$);
#865=AXIS2_PLACEMENT_3D($,#1336,#1035,#1036);
#866=AXIS2_PLACEMENT_3D($,#1341,#1037,#1038);
#867=AXIS2_PLACEMENT_3D($,#1344,#1039,#1040);
#868=AXIS2_PLACEMENT_3D($,#1349,#1041,#1042);
#869=AXIS2_PLACEMENT_3D($,#1354,#1043,#1044);
#870=AXIS2_PLACEMENT_3D($,#1357,#1045,#1046);
#871=AXIS2_PLACEMENT_3D($,#1362,#1047,#1048);
#872=AXIS2_PLACEMENT_3D($,#1365,#1049,#1050);
#873=AXIS2_PLACEMENT_3D('',#1368,#1051,$);
#874=AXIS2_PLACEMENT_3D('',#1369,#1052,$);
#875=AXIS2_PLACEMENT_3D('',#1370,#1053,$);
#876=AXIS2_PLACEMENT_3D('',#1371,#1054,$);
#877=AXIS2_PLACEMENT_3D('',#1372,#1055,$);
#878=AXIS2_PLACEMENT_3D('',#1373,#1056,$);
#879=AXIS2_PLACEMENT_3D($,#1382,#1057,#1058);
#880=AXIS2_PLACEMENT_3D($,#1387,#1059,#1060);
#881=AXIS2_PLACEMENT_3D($,#1390,#1061,#1062);
#882=AXIS2_PLACEMENT_3D($,#1395,#1063,#1064);
#883=AXIS2_PLACEMENT_3D($,#1400,#1065,#1066);
#884=AXIS2_PLACEMENT_3D($,#1403,#1067,#1068);
#885=AXIS2_PLACEMENT_3D($,#1408,#1069,#1070);
#886=AXIS2_PLACEMENT_3D($,#1411,#1071,#1072);
#887=AXIS2_PLACEMENT_3D($,#1414,#1073,#1074);
#888=AXIS2_PLACEMENT_3D($,#1415,#1075,#1076);
#889=DIRECTION('',(0.,0.,1.));
#890=DIRECTION('',(1.,0.,0.));
#891=DIRECTION('',(0.,0.,1.));
#892=DIRECTION('',(0.,0.,-1.));
#893=DIRECTION('',(0.,0.,-1.));
#894=DIRECTION('',(0.,0.,1.));
#895=DIRECTION('',(0.,0.,1.));
#896=DIRECTION('',(0.,0.,-1.));
#897=DIRECTION('',(0.,0.,1.));
#898=DIRECTION('',(1.,0.,0.));
#899=DIRECTION('',(0.,0.,1.));
#900=DIRECTION('',(1.,0.,0.));
#901=DIRECTION('',(0.,0.,-1.));
#902=DIRECTION('',(1.,0.,0.));
#903=DIRECTION('',(0.,0.,-1.));
#904=DIRECTION('',(1.,0.,0.));
#905=DIRECTION('',(0.,0.,1.));
#906=DIRECTION('',(-1.,0.,0.));
#907=DIRECTION('',(0.,0.,1.));
#908=DIRECTION('',(-1.,0.,0.));
#909=DIRECTION('',(0.,0.,-1.));
#910=DIRECTION('',(-1.,0.,0.));
#911=DIRECTION('',(0.,0.,-1.));
#912=DIRECTION('',(-1.,0.,0.));
#913=DIRECTION('',(0.,0.,1.));
#914=DIRECTION('',(0.,0.,-1.));
#915=DIRECTION('',(0.,0.,-1.));
#916=DIRECTION('',(0.,0.,1.));
#917=DIRECTION('',(0.,0.,1.));
#918=DIRECTION('',(0.,0.,-1.));
#919=DIRECTION('',(0.,0.,1.));
#920=DIRECTION('',(1.,-6.31593542897867E-16,0.));
#921=DIRECTION('',(0.,0.,1.));
#922=DIRECTION('',(1.,-6.31593542897867E-16,0.));
#923=DIRECTION('',(0.,0.,-1.));
#924=DIRECTION('',(1.,0.,0.));
#925=DIRECTION('',(0.,0.,-1.));
#926=DIRECTION('',(1.,0.,0.));
#927=DIRECTION('',(0.,0.,1.));
#928=DIRECTION('',(-1.,6.31593542897867E-16,0.));
#929=DIRECTION('',(0.,0.,1.));
#930=DIRECTION('',(-1.,6.31593542897867E-16,0.));
#931=DIRECTION('',(0.,0.,-1.));
#932=DIRECTION('',(-1.,0.,0.));
#933=DIRECTION('',(0.,0.,-1.));
#934=DIRECTION('',(-1.,0.,0.));
#935=DIRECTION('',(0.,0.,1.));
#936=DIRECTION('',(0.,0.,-1.));
#937=DIRECTION('',(0.,0.,-1.));
#938=DIRECTION('',(0.,0.,1.));
#939=DIRECTION('',(0.,0.,1.));
#940=DIRECTION('',(0.,0.,-1.));
#941=DIRECTION('',(0.,0.,1.));
#942=DIRECTION('',(1.,-7.105427357601E-16,0.));
#943=DIRECTION('',(0.,0.,1.));
#944=DIRECTION('',(1.,-7.105427357601E-16,0.));
#945=DIRECTION('',(0.,0.,-1.));
#946=DIRECTION('',(1.,0.,0.));
#947=DIRECTION('',(0.,0.,-1.));
#948=DIRECTION('',(1.,0.,0.));
#949=DIRECTION('',(0.,0.,1.));
#950=DIRECTION('',(-1.,0.,0.));
#951=DIRECTION('',(0.,0.,1.));
#952=DIRECTION('',(-1.,0.,0.));
#953=DIRECTION('',(0.,0.,-1.));
#954=DIRECTION('',(-1.,0.,0.));
#955=DIRECTION('',(0.,0.,-1.));
#956=DIRECTION('',(-1.,0.,0.));
#957=DIRECTION('',(0.,0.,1.));
#958=DIRECTION('',(1.,0.,0.));
#959=DIRECTION('',(0.,0.,1.));
#960=DIRECTION('',(1.,0.,0.));
#961=DIRECTION('',(0.,0.,1.));
#962=DIRECTION('',(1.,-6.31593542897867E-16,0.));
#963=DIRECTION('',(0.,0.,1.));
#964=DIRECTION('',(1.,0.,0.));
#965=DIRECTION('',(0.,0.,1.));
#966=DIRECTION('',(1.,0.,0.));
#967=DIRECTION('',(0.,0.,1.));
#968=DIRECTION('',(1.,0.,0.));
#969=DIRECTION('',(0.,0.,1.));
#970=DIRECTION('',(1.,0.,0.));
#971=DIRECTION('',(0.,0.,1.));
#972=DIRECTION('',(1.,-1.23710565601089E-16,0.));
#973=DIRECTION('',(0.,0.,1.));
#974=DIRECTION('',(1.,3.1347473636475E-16,0.));
#975=DIRECTION('',(0.,0.,1.));
#976=DIRECTION('',(1.,0.,0.));
#977=DIRECTION('',(0.,0.,1.));
#978=DIRECTION('',(1.,0.,0.));
#979=DIRECTION('',(0.,0.,1.));
#980=DIRECTION('',(1.,-3.51570624464633E-16,0.));
#981=DIRECTION('',(0.,0.,1.));
#982=DIRECTION('',(1.,2.43048824309832E-16,0.));
#983=DIRECTION('',(0.,0.,1.));
#984=DIRECTION('',(1.,0.,0.));
#985=DIRECTION('',(0.,0.,1.));
#986=DIRECTION('',(0.,0.,-1.));
#987=DIRECTION('',(0.,0.,-1.));
#988=DIRECTION('',(0.,0.,1.));
#989=DIRECTION('',(0.,0.,1.));
#990=DIRECTION('',(0.,0.,-1.));
#991=DIRECTION('',(0.,0.,1.));
#992=DIRECTION('',(1.,3.88578058618804E-16,0.));
#993=DIRECTION('',(0.,0.,1.));
#994=DIRECTION('',(1.,3.88578058618804E-16,0.));
#995=DIRECTION('',(0.,0.,-1.));
#996=DIRECTION('',(1.,-6.3585500501259E-16,0.));
#997=DIRECTION('',(0.,0.,-1.));
#998=DIRECTION('',(1.,-6.3585500501259E-16,0.));
#999=DIRECTION('',(0.,0.,1.));
#1000=DIRECTION('',(-1.,-1.6326809185664E-17,0.));
#1001=DIRECTION('',(0.,0.,1.));
#1002=DIRECTION('',(-1.,-1.6326809185664E-17,0.));
#1003=DIRECTION('',(0.,0.,-1.));
#1004=DIRECTION('',(-1.,7.73791805041776E-17,0.));
#1005=DIRECTION('',(0.,0.,-1.));
#1006=DIRECTION('',(-1.,7.73791805041776E-17,0.));
#1007=DIRECTION('',(0.,0.,1.));
#1008=DIRECTION('',(0.,0.,-1.));
#1009=DIRECTION('',(0.,0.,-1.));
#1010=DIRECTION('',(0.,0.,1.));
#1011=DIRECTION('',(0.,0.,1.));
#1012=DIRECTION('',(0.,0.,-1.));
#1013=DIRECTION('',(0.,0.,1.));
#1014=DIRECTION('',(1.,-1.11022302462516E-16,0.));
#1015=DIRECTION('',(0.,0.,1.));
#1016=DIRECTION('',(1.,-1.11022302462516E-16,0.));
#1017=DIRECTION('',(0.,0.,-1.));
#1018=DIRECTION('',(1.,-5.51747200116744E-16,0.));
#1019=DIRECTION('',(0.,0.,-1.));
#1020=DIRECTION('',(1.,-5.51747200116744E-16,0.));
#1021=DIRECTION('',(0.,0.,1.));
#1022=DIRECTION('',(-1.,2.66453525910038E-16,0.));
#1023=DIRECTION('',(0.,0.,1.));
#1024=DIRECTION('',(-1.,2.66453525910038E-16,0.));
#1025=DIRECTION('',(0.,0.,-1.));
#1026=DIRECTION('',(-1.,-1.6821560979169E-17,0.));
#1027=DIRECTION('',(0.,0.,-1.));
#1028=DIRECTION('',(-1.,-1.6821560979169E-17,0.));
#1029=DIRECTION('',(0.,0.,1.));
#1030=DIRECTION('',(0.,0.,-1.));
#1031=DIRECTION('',(0.,0.,-1.));
#1032=DIRECTION('',(0.,0.,1.));
#1033=DIRECTION('',(0.,0.,1.));
#1034=DIRECTION('',(0.,0.,-1.));
#1035=DIRECTION('',(0.,0.,1.));
#1036=DIRECTION('',(1.,3.60072332310862E-17,0.));
#1037=DIRECTION('',(0.,0.,1.));
#1038=DIRECTION('',(1.,3.60072332310862E-17,0.));
#1039=DIRECTION('',(0.,0.,-1.));
#1040=DIRECTION('',(1.,-7.30055746495936E-16,0.));
#1041=DIRECTION('',(0.,0.,-1.));
#1042=DIRECTION('',(1.,-7.30055746495936E-16,0.));
#1043=DIRECTION('',(0.,0.,1.));
#1044=DIRECTION('',(-1.,-3.27065701849033E-16,0.));
#1045=DIRECTION('',(0.,0.,1.));
#1046=DIRECTION('',(-1.,-3.27065701849033E-16,0.));
#1047=DIRECTION('',(0.,0.,-1.));
#1048=DIRECTION('',(-1.,5.95483258662585E-16,0.));
#1049=DIRECTION('',(0.,0.,-1.));
#1050=DIRECTION('',(-1.,5.95483258662585E-16,0.));
#1051=DIRECTION('',(0.,0.,1.));
#1052=DIRECTION('',(0.,0.,-1.));
#1053=DIRECTION('',(0.,0.,-1.));
#1054=DIRECTION('',(0.,0.,1.));
#1055=DIRECTION('',(0.,0.,1.));
#1056=DIRECTION('',(0.,0.,-1.));
#1057=DIRECTION('',(0.,0.,1.));
#1058=DIRECTION('',(1.,-7.52484494468163E-16,0.));
#1059=DIRECTION('',(0.,0.,1.));
#1060=DIRECTION('',(1.,-7.52484494468163E-16,0.));
#1061=DIRECTION('',(0.,0.,-1.));
#1062=DIRECTION('',(1.,-5.48382887920911E-16,0.));
#1063=DIRECTION('',(0.,0.,-1.));
#1064=DIRECTION('',(1.,-5.48382887920911E-16,0.));
#1065=DIRECTION('',(0.,0.,1.));
#1066=DIRECTION('',(-1.,8.63506796930678E-16,0.));
#1067=DIRECTION('',(0.,0.,1.));
#1068=DIRECTION('',(-1.,8.63506796930678E-16,0.));
#1069=DIRECTION('',(0.,0.,-1.));
#1070=DIRECTION('',(-1.,7.065055611251E-17,0.));
#1071=DIRECTION('',(0.,0.,-1.));
#1072=DIRECTION('',(-1.,7.065055611251E-17,0.));
#1073=DIRECTION('',(0.,0.,1.));
#1074=DIRECTION('',(1.,0.,0.));
#1075=DIRECTION('',(0.,0.,1.));
#1076=DIRECTION('',(1.,0.,0.));
#1077=CARTESIAN_POINT('',(0.,0.,0.));
#1078=CARTESIAN_POINT('',(68.5443449123771,-66.4960263061019,85.));
#1079=CARTESIAN_POINT('',(68.5443449123771,-66.4960263061019,85.));
#1080=CARTESIAN_POINT('',(37.2943449123771,-97.7460263061019,0.));
#1081=CARTESIAN_POINT('',(37.2943449123771,-97.7460263061019,170.));
#1082=CARTESIAN_POINT('',(68.5443449123771,-66.4960263061019,85.));
#1083=CARTESIAN_POINT('',(68.5443449123771,-66.4960263061019,85.));
#1084=CARTESIAN_POINT('',(93.5443449123771,-66.4960263061019,0.));
#1085=CARTESIAN_POINT('',(93.5443449123771,-66.4960263061019,170.));
#1086=CARTESIAN_POINT('',(85.0443449123771,-66.4960263061019,0.));
#1087=CARTESIAN_POINT('',(85.0443449123771,-66.4960263061019,170.));
#1088=CARTESIAN_POINT('',(43.5443449123771,-66.4960263061019,0.));
#1089=CARTESIAN_POINT('',(43.5443449123771,-66.4960263061019,170.));
#1090=CARTESIAN_POINT('',(52.0443449123771,-66.4960263061019,0.));
#1091=CARTESIAN_POINT('',(52.0443449123771,-66.4960263061019,170.));
#1092=CARTESIAN_POINT('',(68.5443449123771,-66.4960263061019,0.));
#1093=CARTESIAN_POINT('',(93.5443449123771,-66.4960263061019,0.));
#1094=CARTESIAN_POINT('',(43.5443449123771,-66.4960263061019,0.));
#1095=CARTESIAN_POINT('',(93.5443449123771,-66.4960263061019,0.));
#1096=CARTESIAN_POINT('',(93.5443449123771,-66.4960263061019,170.));
#1097=CARTESIAN_POINT('',(68.5443449123771,-66.4960263061019,170.));
#1098=CARTESIAN_POINT('',(93.5443449123771,-66.4960263061019,170.));
#1099=CARTESIAN_POINT('',(43.5443449123771,-66.4960263061019,170.));
#1100=CARTESIAN_POINT('',(68.5443449123771,-66.4960263061019,0.));
#1101=CARTESIAN_POINT('',(85.0443449123771,-66.4960263061019,0.));
#1102=CARTESIAN_POINT('',(52.0443449123771,-66.4960263061019,0.));
#1103=CARTESIAN_POINT('',(85.0443449123771,-66.4960263061019,0.));
#1104=CARTESIAN_POINT('',(85.0443449123771,-66.4960263061019,170.));
#1105=CARTESIAN_POINT('',(68.5443449123771,-66.4960263061019,170.));
#1106=CARTESIAN_POINT('',(85.0443449123771,-66.4960263061019,170.));
#1107=CARTESIAN_POINT('',(52.0443449123771,-66.4960263061019,170.));
#1108=CARTESIAN_POINT('',(43.5443449123771,-66.4960263061019,0.));
#1109=CARTESIAN_POINT('',(43.5443449123771,-66.4960263061019,170.));
#1110=CARTESIAN_POINT('',(68.5443449123771,-66.4960263061019,0.));
#1111=CARTESIAN_POINT('',(43.5443449123771,-66.4960263061019,0.));
#1112=CARTESIAN_POINT('',(93.5443449123771,-66.4960263061019,0.));
#1113=CARTESIAN_POINT('',(68.5443449123771,-66.4960263061019,170.));
#1114=CARTESIAN_POINT('',(43.5443449123771,-66.4960263061019,170.));
#1115=CARTESIAN_POINT('',(93.5443449123771,-66.4960263061019,170.));
#1116=CARTESIAN_POINT('',(52.0443449123771,-66.4960263061019,0.));
#1117=CARTESIAN_POINT('',(52.0443449123771,-66.4960263061019,170.));
#1118=CARTESIAN_POINT('',(68.5443449123771,-66.4960263061019,0.));
#1119=CARTESIAN_POINT('',(52.0443449123771,-66.4960263061019,0.));
#1120=CARTESIAN_POINT('',(85.0443449123771,-66.4960263061019,0.));
#1121=CARTESIAN_POINT('',(68.5443449123771,-66.4960263061019,170.));
#1122=CARTESIAN_POINT('',(52.0443449123771,-66.4960263061019,170.));
#1123=CARTESIAN_POINT('',(85.0443449123771,-66.4960263061019,170.));
#1124=CARTESIAN_POINT('',(14.5802752874506,-66.4960263061019,85.));
#1125=CARTESIAN_POINT('',(14.5802752874506,-66.4960263061019,85.));
#1126=CARTESIAN_POINT('',(-13.5447247125494,-94.6210263061019,0.));
#1127=CARTESIAN_POINT('',(-13.5447247125494,-94.6210263061019,170.));
#1128=CARTESIAN_POINT('',(14.5802752874506,-66.4960263061019,85.));
#1129=CARTESIAN_POINT('',(14.5802752874506,-66.4960263061019,85.));
#1130=CARTESIAN_POINT('',(37.0802752874506,-66.4960263061019,0.));
#1131=CARTESIAN_POINT('',(37.0802752874506,-66.4960263061019,170.));
#1132=CARTESIAN_POINT('',(31.0802752874506,-66.4960263061019,0.));
#1133=CARTESIAN_POINT('',(31.0802752874506,-66.4960263061019,170.));
#1134=CARTESIAN_POINT('',(-7.91972471254937,-66.4960263061019,0.));
#1135=CARTESIAN_POINT('',(-7.91972471254937,-66.4960263061019,170.));
#1136=CARTESIAN_POINT('',(-1.91972471254937,-66.4960263061019,0.));
#1137=CARTESIAN_POINT('',(-1.91972471254937,-66.4960263061019,170.));
#1138=CARTESIAN_POINT('',(14.5802752874506,-66.4960263061019,0.));
#1139=CARTESIAN_POINT('',(37.0802752874506,-66.4960263061019,0.));
#1140=CARTESIAN_POINT('',(-7.91972471254937,-66.4960263061019,0.));
#1141=CARTESIAN_POINT('',(37.0802752874506,-66.4960263061019,0.));
#1142=CARTESIAN_POINT('',(37.0802752874506,-66.4960263061019,170.));
#1143=CARTESIAN_POINT('',(14.5802752874506,-66.4960263061019,170.));
#1144=CARTESIAN_POINT('',(37.0802752874506,-66.4960263061019,170.));
#1145=CARTESIAN_POINT('',(-7.91972471254937,-66.4960263061019,170.));
#1146=CARTESIAN_POINT('',(14.5802752874506,-66.4960263061019,0.));
#1147=CARTESIAN_POINT('',(31.0802752874506,-66.4960263061019,0.));
#1148=CARTESIAN_POINT('',(-1.91972471254937,-66.4960263061019,0.));
#1149=CARTESIAN_POINT('',(31.0802752874506,-66.4960263061019,0.));
#1150=CARTESIAN_POINT('',(31.0802752874506,-66.4960263061019,170.));
#1151=CARTESIAN_POINT('',(14.5802752874506,-66.4960263061019,170.));
#1152=CARTESIAN_POINT('',(31.0802752874506,-66.4960263061019,170.));
#1153=CARTESIAN_POINT('',(-1.91972471254937,-66.4960263061019,170.));
#1154=CARTESIAN_POINT('',(-7.91972471254937,-66.4960263061019,0.));
#1155=CARTESIAN_POINT('',(-7.91972471254937,-66.4960263061019,170.));
#1156=CARTESIAN_POINT('',(14.5802752874506,-66.4960263061019,0.));
#1157=CARTESIAN_POINT('',(-7.91972471254938,-66.4960263061019,0.));
#1158=CARTESIAN_POINT('',(37.0802752874506,-66.4960263061019,0.));
#1159=CARTESIAN_POINT('',(14.5802752874506,-66.4960263061019,170.));
#1160=CARTESIAN_POINT('',(-7.91972471254938,-66.4960263061019,170.));
#1161=CARTESIAN_POINT('',(37.0802752874506,-66.4960263061019,170.));
#1162=CARTESIAN_POINT('',(-1.91972471254937,-66.4960263061019,0.));
#1163=CARTESIAN_POINT('',(-1.91972471254937,-66.4960263061019,170.));
#1164=CARTESIAN_POINT('',(14.5802752874506,-66.4960263061019,0.));
#1165=CARTESIAN_POINT('',(-1.91972471254937,-66.4960263061019,0.));
#1166=CARTESIAN_POINT('',(31.0802752874506,-66.4960263061019,0.));
#1167=CARTESIAN_POINT('',(14.5802752874506,-66.4960263061019,170.));
#1168=CARTESIAN_POINT('',(-1.91972471254937,-66.4960263061019,170.));
#1169=CARTESIAN_POINT('',(31.0802752874506,-66.4960263061019,170.));
#1170=CARTESIAN_POINT('',(-35.6136122285595,-66.4960263061019,85.));
#1171=CARTESIAN_POINT('',(-35.6136122285595,-66.4960263061019,85.));
#1172=CARTESIAN_POINT('',(-60.6136122285595,-91.4960263061019,0.));
#1173=CARTESIAN_POINT('',(-60.6136122285595,-91.4960263061019,170.));
#1174=CARTESIAN_POINT('',(-35.6136122285595,-66.4960263061019,85.));
#1175=CARTESIAN_POINT('',(-35.6136122285595,-66.4960263061019,85.));
#1176=CARTESIAN_POINT('',(-15.6136122285595,-66.4960263061019,0.));
#1177=CARTESIAN_POINT('',(-15.6136122285595,-66.4960263061019,170.));
#1178=CARTESIAN_POINT('',(-19.1136122285595,-66.4960263061019,0.));
#1179=CARTESIAN_POINT('',(-19.1136122285595,-66.4960263061019,170.));
#1180=CARTESIAN_POINT('',(-55.6136122285595,-66.4960263061019,0.));
#1181=CARTESIAN_POINT('',(-55.6136122285595,-66.4960263061019,170.));
#1182=CARTESIAN_POINT('',(-52.1136122285595,-66.4960263061019,0.));
#1183=CARTESIAN_POINT('',(-52.1136122285595,-66.4960263061019,170.));
#1184=CARTESIAN_POINT('',(-35.6136122285595,-66.4960263061019,0.));
#1185=CARTESIAN_POINT('',(-15.6136122285595,-66.4960263061019,0.));
#1186=CARTESIAN_POINT('',(-55.6136122285595,-66.4960263061019,0.));
#1187=CARTESIAN_POINT('',(-15.6136122285595,-66.4960263061019,0.));
#1188=CARTESIAN_POINT('',(-15.6136122285595,-66.4960263061019,170.));
#1189=CARTESIAN_POINT('',(-35.6136122285595,-66.4960263061019,170.));
#1190=CARTESIAN_POINT('',(-15.6136122285595,-66.4960263061019,170.));
#1191=CARTESIAN_POINT('',(-55.6136122285595,-66.4960263061019,170.));
#1192=CARTESIAN_POINT('',(-35.6136122285595,-66.4960263061019,0.));
#1193=CARTESIAN_POINT('',(-19.1136122285595,-66.4960263061019,0.));
#1194=CARTESIAN_POINT('',(-52.1136122285595,-66.4960263061019,0.));
#1195=CARTESIAN_POINT('',(-19.1136122285595,-66.4960263061019,0.));
#1196=CARTESIAN_POINT('',(-19.1136122285595,-66.4960263061019,170.));
#1197=CARTESIAN_POINT('',(-35.6136122285595,-66.4960263061019,170.));
#1198=CARTESIAN_POINT('',(-19.1136122285595,-66.4960263061019,170.));
#1199=CARTESIAN_POINT('',(-52.1136122285595,-66.4960263061019,170.));
#1200=CARTESIAN_POINT('',(-55.6136122285595,-66.4960263061019,0.));
#1201=CARTESIAN_POINT('',(-55.6136122285595,-66.4960263061019,170.));
#1202=CARTESIAN_POINT('',(-35.6136122285595,-66.4960263061019,0.));
#1203=CARTESIAN_POINT('',(-55.6136122285595,-66.4960263061019,0.));
#1204=CARTESIAN_POINT('',(-15.6136122285595,-66.4960263061019,0.));
#1205=CARTESIAN_POINT('',(-35.6136122285595,-66.4960263061019,170.));
#1206=CARTESIAN_POINT('',(-55.6136122285595,-66.4960263061019,170.));
#1207=CARTESIAN_POINT('',(-15.6136122285595,-66.4960263061019,170.));
#1208=CARTESIAN_POINT('',(-52.1136122285595,-66.4960263061019,0.));
#1209=CARTESIAN_POINT('',(-52.1136122285595,-66.4960263061019,170.));
#1210=CARTESIAN_POINT('',(-35.6136122285595,-66.4960263061019,0.));
#1211=CARTESIAN_POINT('',(-52.1136122285595,-66.4960263061019,0.));
#1212=CARTESIAN_POINT('',(-19.1136122285595,-66.4960263061019,0.));
#1213=CARTESIAN_POINT('',(-35.6136122285595,-66.4960263061019,170.));
#1214=CARTESIAN_POINT('',(-52.1136122285595,-66.4960263061019,170.));
#1215=CARTESIAN_POINT('',(-19.1136122285595,-66.4960263061019,170.));
#1216=CARTESIAN_POINT('',(-35.6136122285595,-66.4960263061019,0.));
#1217=CARTESIAN_POINT('',(-35.6136122285595,-66.4960263061019,0.));
#1218=CARTESIAN_POINT('',(14.5802752874506,-66.4960263061019,0.));
#1219=CARTESIAN_POINT('',(14.5802752874506,-66.4960263061019,0.));
#1220=CARTESIAN_POINT('',(68.5443449123771,-66.4960263061019,0.));
#1221=CARTESIAN_POINT('',(68.5443449123771,-66.4960263061019,0.));
#1222=CARTESIAN_POINT('',(-0.175773493910029,-0.29391410683551,0.));
#1223=CARTESIAN_POINT('',(-0.175773493910029,-0.293914106835508,0.));
#1224=CARTESIAN_POINT('',(-39.4785579702547,-0.293914106835516,0.));
#1225=CARTESIAN_POINT('',(-39.4785579702547,-0.29391410683551,0.));
#1226=CARTESIAN_POINT('',(45.5460843666562,-0.29391410683551,0.));
#1227=CARTESIAN_POINT('',(45.5460843666563,-0.293914106835504,0.));
#1228=CARTESIAN_POINT('',(92.8398243991803,-0.293914106835515,0.));
#1229=CARTESIAN_POINT('',(92.8398243991803,-0.29391410683551,0.));
#1230=CARTESIAN_POINT('',(-39.4785579702547,-0.293914106835517,85.));
#1231=CARTESIAN_POINT('',(-39.4785579702547,-0.293914106835504,85.));
#1232=CARTESIAN_POINT('',(-60.7285579702547,-21.5439141068355,0.));
#1233=CARTESIAN_POINT('',(-60.7285579702547,-21.5439141068355,170.));
#1234=CARTESIAN_POINT('',(-39.4785579702547,-0.293914106835518,85.));
#1235=CARTESIAN_POINT('',(-39.4785579702547,-0.29391410683551,85.));
#1236=CARTESIAN_POINT('',(-22.4785579702547,-0.29391410683551,0.));
#1237=CARTESIAN_POINT('',(-22.4785579702547,-0.29391410683551,170.));
#1238=CARTESIAN_POINT('',(-22.9785579702547,-0.293914106835514,0.));
#1239=CARTESIAN_POINT('',(-22.9785579702547,-0.293914106835514,170.));
#1240=CARTESIAN_POINT('',(-56.4785579702547,-0.293914106835519,0.));
#1241=CARTESIAN_POINT('',(-56.4785579702547,-0.293914106835519,170.));
#1242=CARTESIAN_POINT('',(-55.9785579702547,-0.293914106835508,0.));
#1243=CARTESIAN_POINT('',(-55.9785579702547,-0.293914106835508,170.));
#1244=CARTESIAN_POINT('',(-39.4785579702547,-0.293914106835517,0.));
#1245=CARTESIAN_POINT('',(-22.4785579702547,-0.29391410683551,0.));
#1246=CARTESIAN_POINT('',(-56.4785579702547,-0.293914106835521,0.));
#1247=CARTESIAN_POINT('',(-22.4785579702547,-0.29391410683551,0.));
#1248=CARTESIAN_POINT('',(-22.4785579702547,-0.29391410683551,170.));
#1249=CARTESIAN_POINT('',(-39.4785579702547,-0.293914106835517,170.));
#1250=CARTESIAN_POINT('',(-22.4785579702547,-0.29391410683551,170.));
#1251=CARTESIAN_POINT('',(-56.4785579702547,-0.293914106835521,170.));
#1252=CARTESIAN_POINT('',(-39.4785579702547,-0.293914106835504,0.));
#1253=CARTESIAN_POINT('',(-22.9785579702547,-0.293914106835514,0.));
#1254=CARTESIAN_POINT('',(-55.9785579702547,-0.29391410683551,0.));
#1255=CARTESIAN_POINT('',(-22.9785579702547,-0.293914106835514,0.));
#1256=CARTESIAN_POINT('',(-22.9785579702547,-0.293914106835514,170.));
#1257=CARTESIAN_POINT('',(-39.4785579702547,-0.293914106835504,170.));
#1258=CARTESIAN_POINT('',(-22.9785579702547,-0.293914106835514,170.));
#1259=CARTESIAN_POINT('',(-55.9785579702547,-0.29391410683551,170.));
#1260=CARTESIAN_POINT('',(-56.4785579702547,-0.293914106835519,0.));
#1261=CARTESIAN_POINT('',(-56.4785579702547,-0.293914106835519,170.));
#1262=CARTESIAN_POINT('',(-39.4785579702547,-0.293914106835518,0.));
#1263=CARTESIAN_POINT('',(-56.4785579702547,-0.293914106835519,0.));
#1264=CARTESIAN_POINT('',(-22.4785579702547,-0.293914106835513,0.));
#1265=CARTESIAN_POINT('',(-39.4785579702547,-0.293914106835518,170.));
#1266=CARTESIAN_POINT('',(-56.4785579702547,-0.293914106835519,170.));
#1267=CARTESIAN_POINT('',(-22.4785579702547,-0.293914106835513,170.));
#1268=CARTESIAN_POINT('',(-55.9785579702547,-0.293914106835508,0.));
#1269=CARTESIAN_POINT('',(-55.9785579702547,-0.293914106835508,170.));
#1270=CARTESIAN_POINT('',(-39.4785579702547,-0.29391410683551,0.));
#1271=CARTESIAN_POINT('',(-55.9785579702547,-0.293914106835508,0.));
#1272=CARTESIAN_POINT('',(-22.9785579702547,-0.293914106835509,0.));
#1273=CARTESIAN_POINT('',(-39.4785579702547,-0.29391410683551,170.));
#1274=CARTESIAN_POINT('',(-55.9785579702547,-0.293914106835508,170.));
#1275=CARTESIAN_POINT('',(-22.9785579702547,-0.293914106835509,170.));
#1276=CARTESIAN_POINT('',(-0.175773493910029,-0.293914106835508,85.));
#1277=CARTESIAN_POINT('',(-0.175773493910029,-0.293914106835505,85.));
#1278=CARTESIAN_POINT('',(-22.05077349391,-22.1689141068355,0.));
#1279=CARTESIAN_POINT('',(-22.05077349391,-22.1689141068355,170.));
#1280=CARTESIAN_POINT('',(-0.175773493910029,-0.293914106835509,85.));
#1281=CARTESIAN_POINT('',(-0.175773493910029,-0.293914106835508,85.));
#1282=CARTESIAN_POINT('',(17.32422650609,-0.29391410683551,0.));
#1283=CARTESIAN_POINT('',(17.32422650609,-0.29391410683551,170.));
#1284=CARTESIAN_POINT('',(16.32422650609,-0.293914106835514,0.));
#1285=CARTESIAN_POINT('',(16.32422650609,-0.293914106835514,170.));
#1286=CARTESIAN_POINT('',(-17.67577349391,-0.293914106835504,0.));
#1287=CARTESIAN_POINT('',(-17.67577349391,-0.293914106835504,170.));
#1288=CARTESIAN_POINT('',(-16.67577349391,-0.293914106835508,0.));
#1289=CARTESIAN_POINT('',(-16.67577349391,-0.293914106835508,170.));
#1290=CARTESIAN_POINT('',(-0.175773493910029,-0.293914106835508,0.));
#1291=CARTESIAN_POINT('',(17.32422650609,-0.29391410683551,0.));
#1292=CARTESIAN_POINT('',(-17.67577349391,-0.293914106835504,0.));
#1293=CARTESIAN_POINT('',(17.32422650609,-0.29391410683551,0.));
#1294=CARTESIAN_POINT('',(17.32422650609,-0.29391410683551,170.));
#1295=CARTESIAN_POINT('',(-0.175773493910029,-0.293914106835508,170.));
#1296=CARTESIAN_POINT('',(17.32422650609,-0.29391410683551,170.));
#1297=CARTESIAN_POINT('',(-17.67577349391,-0.293914106835504,170.));
#1298=CARTESIAN_POINT('',(-0.175773493910029,-0.293914106835505,0.));
#1299=CARTESIAN_POINT('',(16.32422650609,-0.293914106835514,0.));
#1300=CARTESIAN_POINT('',(-16.67577349391,-0.293914106835505,0.));
#1301=CARTESIAN_POINT('',(16.32422650609,-0.293914106835514,0.));
#1302=CARTESIAN_POINT('',(16.32422650609,-0.293914106835514,170.));
#1303=CARTESIAN_POINT('',(-0.175773493910029,-0.293914106835505,170.));
#1304=CARTESIAN_POINT('',(16.32422650609,-0.293914106835514,170.));
#1305=CARTESIAN_POINT('',(-16.67577349391,-0.293914106835505,170.));
#1306=CARTESIAN_POINT('',(-17.67577349391,-0.293914106835504,0.));
#1307=CARTESIAN_POINT('',(-17.67577349391,-0.293914106835504,170.));
#1308=CARTESIAN_POINT('',(-0.175773493910029,-0.293914106835509,0.));
#1309=CARTESIAN_POINT('',(-17.67577349391,-0.293914106835504,0.));
#1310=CARTESIAN_POINT('',(17.32422650609,-0.293914106835515,0.));
#1311=CARTESIAN_POINT('',(-0.175773493910029,-0.293914106835509,170.));
#1312=CARTESIAN_POINT('',(-17.67577349391,-0.293914106835504,170.));
#1313=CARTESIAN_POINT('',(17.32422650609,-0.293914106835515,170.));
#1314=CARTESIAN_POINT('',(-16.67577349391,-0.293914106835508,0.));
#1315=CARTESIAN_POINT('',(-16.67577349391,-0.293914106835508,170.));
#1316=CARTESIAN_POINT('',(-0.175773493910029,-0.293914106835508,0.));
#1317=CARTESIAN_POINT('',(-16.67577349391,-0.293914106835508,0.));
#1318=CARTESIAN_POINT('',(16.32422650609,-0.293914106835513,0.));
#1319=CARTESIAN_POINT('',(-0.175773493910029,-0.293914106835508,170.));
#1320=CARTESIAN_POINT('',(-16.67577349391,-0.293914106835508,170.));
#1321=CARTESIAN_POINT('',(16.32422650609,-0.293914106835513,170.));
#1322=CARTESIAN_POINT('',(92.8398243991803,-0.293914106835512,85.));
#1323=CARTESIAN_POINT('',(92.8398243991803,-0.293914106835502,85.));
#1324=CARTESIAN_POINT('',(69.7148243991803,-23.4189141068355,0.));
#1325=CARTESIAN_POINT('',(69.7148243991803,-23.4189141068355,170.));
#1326=CARTESIAN_POINT('',(92.8398243991803,-0.293914106835512,85.));
#1327=CARTESIAN_POINT('',(92.8398243991803,-0.293914106835518,85.));
#1328=CARTESIAN_POINT('',(111.33982439918,-0.293914106835511,0.));
#1329=CARTESIAN_POINT('',(111.33982439918,-0.293914106835511,170.));
#1330=CARTESIAN_POINT('',(109.33982439918,-0.293914106835514,0.));
#1331=CARTESIAN_POINT('',(109.33982439918,-0.293914106835514,170.));
#1332=CARTESIAN_POINT('',(74.3398243991803,-0.293914106835518,0.));
#1333=CARTESIAN_POINT('',(74.3398243991803,-0.293914106835518,170.));
#1334=CARTESIAN_POINT('',(76.3398243991803,-0.293914106835508,0.));
#1335=CARTESIAN_POINT('',(76.3398243991803,-0.293914106835508,170.));
#1336=CARTESIAN_POINT('',(92.8398243991803,-0.293914106835512,0.));
#1337=CARTESIAN_POINT('',(111.33982439918,-0.293914106835511,0.));
#1338=CARTESIAN_POINT('',(74.3398243991803,-0.29391410683551,0.));
#1339=CARTESIAN_POINT('',(111.33982439918,-0.293914106835511,0.));
#1340=CARTESIAN_POINT('',(111.33982439918,-0.293914106835511,170.));
#1341=CARTESIAN_POINT('',(92.8398243991803,-0.293914106835512,170.));
#1342=CARTESIAN_POINT('',(111.33982439918,-0.293914106835511,170.));
#1343=CARTESIAN_POINT('',(74.3398243991803,-0.29391410683551,170.));
#1344=CARTESIAN_POINT('',(92.8398243991803,-0.293914106835502,0.));
#1345=CARTESIAN_POINT('',(109.33982439918,-0.293914106835514,0.));
#1346=CARTESIAN_POINT('',(76.3398243991803,-0.293914106835507,0.));
#1347=CARTESIAN_POINT('',(109.33982439918,-0.293914106835514,0.));
#1348=CARTESIAN_POINT('',(109.33982439918,-0.293914106835514,170.));
#1349=CARTESIAN_POINT('',(92.8398243991803,-0.293914106835502,170.));
#1350=CARTESIAN_POINT('',(109.33982439918,-0.293914106835514,170.));
#1351=CARTESIAN_POINT('',(76.3398243991803,-0.293914106835507,170.));
#1352=CARTESIAN_POINT('',(74.3398243991803,-0.293914106835518,0.));
#1353=CARTESIAN_POINT('',(74.3398243991803,-0.293914106835518,170.));
#1354=CARTESIAN_POINT('',(92.8398243991803,-0.293914106835512,0.));
#1355=CARTESIAN_POINT('',(74.3398243991803,-0.293914106835518,0.));
#1356=CARTESIAN_POINT('',(111.33982439918,-0.293914106835508,0.));
#1357=CARTESIAN_POINT('',(92.8398243991803,-0.293914106835512,170.));
#1358=CARTESIAN_POINT('',(74.3398243991803,-0.293914106835518,170.));
#1359=CARTESIAN_POINT('',(111.33982439918,-0.293914106835508,170.));
#1360=CARTESIAN_POINT('',(76.3398243991803,-0.293914106835508,0.));
#1361=CARTESIAN_POINT('',(76.3398243991803,-0.293914106835508,170.));
#1362=CARTESIAN_POINT('',(92.8398243991803,-0.293914106835518,0.));
#1363=CARTESIAN_POINT('',(76.3398243991803,-0.293914106835508,0.));
#1364=CARTESIAN_POINT('',(109.33982439918,-0.293914106835511,0.));
#1365=CARTESIAN_POINT('',(92.8398243991803,-0.293914106835518,170.));
#1366=CARTESIAN_POINT('',(76.3398243991803,-0.293914106835508,170.));
#1367=CARTESIAN_POINT('',(109.33982439918,-0.293914106835511,170.));
#1368=CARTESIAN_POINT('',(45.5460843666563,-0.293914106835497,85.));
#1369=CARTESIAN_POINT('',(45.5460843666562,-0.293914106835505,85.));
#1370=CARTESIAN_POINT('',(23.0460843666563,-22.7939141068355,0.));
#1371=CARTESIAN_POINT('',(23.0460843666563,-22.7939141068355,170.));
#1372=CARTESIAN_POINT('',(45.5460843666563,-0.293914106835511,85.));
#1373=CARTESIAN_POINT('',(45.5460843666562,-0.293914106835509,85.));
#1374=CARTESIAN_POINT('',(63.5460843666562,-0.293914106835511,0.));
#1375=CARTESIAN_POINT('',(63.5460843666562,-0.293914106835511,170.));
#1376=CARTESIAN_POINT('',(62.0460843666562,-0.293914106835514,0.));
#1377=CARTESIAN_POINT('',(62.0460843666562,-0.293914106835514,170.));
#1378=CARTESIAN_POINT('',(27.5460843666563,-0.293914106835496,0.));
#1379=CARTESIAN_POINT('',(27.5460843666563,-0.293914106835496,170.));
#1380=CARTESIAN_POINT('',(29.0460843666562,-0.293914106835508,0.));
#1381=CARTESIAN_POINT('',(29.0460843666562,-0.293914106835508,170.));
#1382=CARTESIAN_POINT('',(45.5460843666563,-0.293914106835497,0.));
#1383=CARTESIAN_POINT('',(63.5460843666562,-0.293914106835511,0.));
#1384=CARTESIAN_POINT('',(27.5460843666563,-0.293914106835489,0.));
#1385=CARTESIAN_POINT('',(63.5460843666562,-0.293914106835511,0.));
#1386=CARTESIAN_POINT('',(63.5460843666562,-0.293914106835511,170.));
#1387=CARTESIAN_POINT('',(45.5460843666563,-0.293914106835497,170.));
#1388=CARTESIAN_POINT('',(63.5460843666562,-0.293914106835511,170.));
#1389=CARTESIAN_POINT('',(27.5460843666563,-0.293914106835489,170.));
#1390=CARTESIAN_POINT('',(45.5460843666562,-0.293914106835505,0.));
#1391=CARTESIAN_POINT('',(62.0460843666562,-0.293914106835514,0.));
#1392=CARTESIAN_POINT('',(29.0460843666562,-0.293914106835506,0.));
#1393=CARTESIAN_POINT('',(62.0460843666562,-0.293914106835514,0.));
#1394=CARTESIAN_POINT('',(62.0460843666562,-0.293914106835514,170.));
#1395=CARTESIAN_POINT('',(45.5460843666562,-0.293914106835505,170.));
#1396=CARTESIAN_POINT('',(62.0460843666562,-0.293914106835514,170.));
#1397=CARTESIAN_POINT('',(29.0460843666562,-0.293914106835506,170.));
#1398=CARTESIAN_POINT('',(27.5460843666563,-0.293914106835496,0.));
#1399=CARTESIAN_POINT('',(27.5460843666563,-0.293914106835496,170.));
#1400=CARTESIAN_POINT('',(45.5460843666563,-0.293914106835511,0.));
#1401=CARTESIAN_POINT('',(27.5460843666563,-0.293914106835496,0.));
#1402=CARTESIAN_POINT('',(63.5460843666562,-0.293914106835513,0.));
#1403=CARTESIAN_POINT('',(45.5460843666563,-0.293914106835511,170.));
#1404=CARTESIAN_POINT('',(27.5460843666563,-0.293914106835496,170.));
#1405=CARTESIAN_POINT('',(63.5460843666562,-0.293914106835513,170.));
#1406=CARTESIAN_POINT('',(29.0460843666562,-0.293914106835508,0.));
#1407=CARTESIAN_POINT('',(29.0460843666562,-0.293914106835508,170.));
#1408=CARTESIAN_POINT('',(45.5460843666562,-0.293914106835509,0.));
#1409=CARTESIAN_POINT('',(29.0460843666562,-0.293914106835508,0.));
#1410=CARTESIAN_POINT('',(62.0460843666562,-0.293914106835509,0.));
#1411=CARTESIAN_POINT('',(45.5460843666562,-0.293914106835509,170.));
#1412=CARTESIAN_POINT('',(29.0460843666562,-0.293914106835508,170.));
#1413=CARTESIAN_POINT('',(62.0460843666562,-0.293914106835509,170.));
#1414=CARTESIAN_POINT('',(0.,0.,0.));
#1415=CARTESIAN_POINT('',(0.,0.,0.));
ENDSEC;
END-ISO-10303-21;
